<svg width="79" height="71" viewBox="0 0 79 71" fill="none" xmlns="http://www.w3.org/2000/svg">
<path d="M39.5 65.4531C57.9066 65.4531 72.8281 52.0427 72.8281 35.5C72.8281 18.9573 57.9066 5.54688 39.5 5.54688C21.0934 5.54688 6.17188 18.9573 6.17188 35.5C6.17188 52.0427 21.0934 65.4531 39.5 65.4531Z" fill="#27AAE1"/>
<path d="M60.1758 58.9743C54.2953 63.1698 47.0081 65.4533 39.5 65.4533C31.9919 65.4533 24.7047 63.1698 18.8242 58.9743L19.75 56.0234C20.4488 53.9292 21.8836 52.0948 23.8396 50.7948C25.7956 49.4949 28.1675 48.7994 30.6002 48.8124H48.3998C50.8325 48.7994 53.2044 49.4949 55.1604 50.7948C57.1164 52.0948 58.5512 53.9292 59.25 56.0234L60.1758 58.9743Z" fill="#262234"/>
<path d="M44.4375 43.2656V49.6556C44.4396 50.0703 44.3123 50.4772 44.0701 50.8301C43.8279 51.1831 43.4806 51.468 43.0674 51.6525C41.9598 52.1504 40.7384 52.4096 39.5 52.4096C38.2616 52.4096 37.0402 52.1504 35.9327 51.6525V51.6525C35.5195 51.468 35.1721 51.1831 34.9299 50.8301C34.6877 50.4772 34.5605 50.0703 34.5625 49.6556V43.2656H44.4375Z" fill="#FFD2B4"/>
<path opacity="0.2" d="M44.4375 48.8125V49.6556C44.4396 50.0703 44.3123 50.4772 44.0701 50.8301C43.8279 51.1831 43.4805 51.468 43.0673 51.6525C41.9592 52.1487 40.7381 52.407 39.5 52.407C38.2619 52.407 37.0408 52.1487 35.9327 51.6525C35.5195 51.468 35.1721 51.1831 34.9299 50.8301C34.6877 50.4772 34.5604 50.0703 34.5625 49.6556V48.8125H32.0938V49.6556C32.0942 50.4812 32.351 51.2903 32.8351 51.9919C33.3192 52.6935 34.0114 53.2598 34.8341 53.6272C36.281 54.2835 37.8792 54.6254 39.5 54.6254C41.1208 54.6254 42.719 54.2835 44.1659 53.6272C44.9886 53.2598 45.6808 52.6935 46.1649 51.9919C46.649 51.2903 46.9058 50.4812 46.9062 49.6556V48.8125H44.4375Z" fill="white"/>
<path d="M39.5 16.8735C53.6336 16.8735 52.4239 28.8437 52.4239 28.8437C54.4976 28.6551 56.127 29.3873 56.127 32.0165C56.127 34.6457 54.8926 35.1893 53.2262 35.3446C53.1397 35.3498 53.0583 35.3831 52.997 35.4381C52.9357 35.4932 52.8987 35.5664 52.893 35.6442C52.4115 39.7378 49.1898 42.7331 46.0051 44.741C44.0981 45.9501 41.8214 46.5991 39.4876 46.5991C37.1538 46.5991 34.8772 45.9501 32.9701 44.741C29.7978 42.7331 26.5637 39.7267 26.0823 35.6442C26.0765 35.5664 26.0396 35.4932 25.9783 35.4381C25.917 35.3831 25.8355 35.3498 25.749 35.3446C24.132 35.2004 22.8483 34.6457 22.8483 32.0165C22.8483 29.3873 24.4159 28.6884 26.4773 28.8437C26.502 28.8437 25.354 16.8735 39.5 16.8735Z" fill="#FFD2B4"/>
<path opacity="0.1" d="M44.4375 45.5731V47.2372C42.8987 47.9085 41.2105 48.2573 39.5 48.2573C37.7895 48.2573 36.1013 47.9085 34.5625 47.2372V45.5731C36.1013 46.2444 37.7895 46.5932 39.5 46.5932C41.2105 46.5932 42.8987 46.2444 44.4375 45.5731V45.5731Z" fill="#262234"/>
<path d="M39.5 15.1097C28.6004 15.1097 25.5392 22.5536 25.5392 29.221C25.5674 30.0191 25.6957 30.8118 25.9218 31.584C26.144 32.3827 28.477 32.3494 28.6251 31.584C28.4866 28.9927 28.9533 26.4041 29.9953 23.9847C30.0181 23.9504 30.0428 23.917 30.0693 23.8849C31.5837 25.2221 33.3856 26.2677 35.3648 26.9579C35.448 26.9899 35.5397 26.9996 35.6289 26.9859C35.7181 26.9721 35.8009 26.9355 35.8675 26.8804C35.934 26.8253 35.9814 26.754 36.0039 26.6753C36.0264 26.5965 36.0231 26.5136 35.9943 26.4365C35.7558 25.7991 35.554 25.1511 35.3895 24.4951C37.0047 25.8316 38.9198 26.8417 41.0059 27.4571C41.0917 27.4875 41.1855 27.4945 41.2757 27.4772C41.3659 27.4599 41.4484 27.4191 41.5129 27.36C41.5775 27.3008 41.6212 27.2258 41.6386 27.1444C41.656 27.063 41.6463 26.9789 41.6107 26.9024C41.4256 26.4697 41.1911 25.9151 40.9936 25.3049C42.9332 26.5016 45.164 27.2625 47.4987 27.5236C47.589 27.5391 47.6823 27.5304 47.7671 27.4986C47.852 27.4668 47.9245 27.4133 47.9758 27.3448C48.0271 27.2762 48.0548 27.1957 48.0556 27.1131C48.0564 27.0305 48.0301 26.9495 47.9801 26.8802C47.5226 26.227 47.1103 25.549 46.7457 24.8501C47.7522 25.2626 48.8027 25.5823 49.8811 25.8041C50.3594 27.6882 50.5709 29.619 50.5106 31.5507C50.6464 32.2607 52.9793 32.294 53.2139 31.5507C53.4183 30.78 53.5259 29.9911 53.5348 29.1988C53.4607 22.5536 50.4118 15.1097 39.5 15.1097Z" fill="#262234"/>
<path d="M39.6605 17.75C39.6605 17.75 37.9447 15.0209 31.2174 14.4219C31.1251 14.4109 31.0313 14.4248 30.9478 14.4618C30.8644 14.4989 30.7951 14.5574 30.7487 14.63C30.7024 14.7025 30.6812 14.7858 30.6877 14.8693C30.6942 14.9528 30.7282 15.0326 30.7854 15.0986C31.0322 15.3981 31.3161 15.7642 31.6 16.208C30.4185 16.2215 29.2409 16.3329 28.0821 16.5408C27.9917 16.5551 27.9079 16.5929 27.8411 16.6495C27.7744 16.7061 27.7276 16.7791 27.7066 16.8595C27.6855 16.9398 27.6912 17.0239 27.7228 17.1013C27.7545 17.1788 27.8107 17.2462 27.8846 17.2952C29.3905 18.3269 32.3283 20.6233 31.6618 22.1653L39.6605 17.75Z" fill="#262234"/>
</svg>
