<svg width="28" height="26" viewBox="0 0 28 26" fill="none" xmlns="http://www.w3.org/2000/svg">
<path d="M2.33325 10.8333L12.5423 3.24947C13.3944 2.61643 14.6054 2.61643 15.4576 3.24947L25.6666 10.8333" stroke="#1B1B1B" stroke-width="1.5" stroke-linecap="round" stroke-linejoin="round"/>
<path d="M11.0573 4.38688L6.39065 7.90772C5.54336 8.54697 5.11971 8.8666 4.89322 9.30843C4.66675 9.75027 4.66675 10.2571 4.66675 11.2709V15.1667C4.66675 19.2521 4.66675 21.295 6.03358 22.5641C7.40042 23.8333 9.6003 23.8333 14.0001 23.8333C18.3998 23.8333 20.5998 23.8333 21.9665 22.5641C23.3334 21.295 23.3334 19.2521 23.3334 15.1667V11.2709C23.3334 10.2571 23.3334 9.75027 23.107 9.30843C22.8804 8.8666 22.4568 8.54697 21.6095 7.90772L16.9429 4.38688C15.5333 3.32342 14.8285 2.79169 14.0001 2.79169C13.1716 2.79169 12.4668 3.32342 11.0573 4.38688Z" stroke="#1B1B1B" stroke-width="1.5"/>
<path d="M11.375 17.6042H16.625" stroke="#1B1B1B" stroke-width="1.5" stroke-linecap="round"/>
</svg>
