<svg width="278" height="247" viewBox="0 0 278 247" fill="none" xmlns="http://www.w3.org/2000/svg">
<path fill-rule="evenodd" clip-rule="evenodd" d="M221.018 188.512C267.831 188.128 276.812 209.935 190.774 205.292C175.844 204.486 152.163 198.059 132.623 196.808C111.519 195.457 70.4263 197.411 64.1496 197.185C39.3798 196.291 24.5354 188.006 95.8531 188.512C122.038 188.697 197.51 188.704 221.018 188.512Z" fill="#F6F6F6"/>
<path d="M215.81 202.71C223.911 202.71 230.478 201.862 230.478 200.817C230.478 199.771 223.911 198.924 215.81 198.924C207.71 198.924 201.143 199.771 201.143 200.817C201.143 201.862 207.71 202.71 215.81 202.71Z" fill="black" fill-opacity="0.2"/>
<path d="M138.245 192.356C144.495 192.356 149.561 191.719 149.561 190.933C149.561 190.147 144.495 189.511 138.245 189.511C131.996 189.511 126.929 190.147 126.929 190.933C126.929 191.719 131.996 192.356 138.245 192.356Z" fill="black" fill-opacity="0.2"/>
<path fill-rule="evenodd" clip-rule="evenodd" d="M245.413 106.053C259.792 144.512 225.488 200.603 189.142 171.705C170.115 156.579 135.692 137.421 111.225 150.114C14.4299 200.336 7.84405 114.196 37.6388 119.076C118.278 132.283 112.646 98.7876 131.851 72.9959C157.464 38.5997 225.882 53.8114 245.413 106.053Z" fill="#F6F6F6"/>
<path d="M68.0073 195.401C74.0929 195.401 79.0264 194.719 79.0264 193.878C79.0264 193.037 74.0929 192.355 68.0073 192.355C61.9216 192.355 56.9882 193.037 56.9882 193.878C56.9882 194.719 61.9216 195.401 68.0073 195.401Z" fill="black" fill-opacity="0.2"/>
<path d="M79.3149 190.07C78.9098 189.648 78.539 189.201 78.2053 188.732C77.11 187.257 76.4464 185.726 75.9368 183.834C74.9075 180.404 74.7279 176.818 75.4103 173.321C75.465 173.616 75.4782 173.901 75.5191 174.213C75.5318 174.648 75.7814 174.925 76.0173 175.219C76.198 175.457 76.2521 175.813 76.474 176.093C76.8493 176.493 77.5165 176.429 77.88 175.973C78.1428 176.061 78.4296 176.077 78.703 176.019C78.9763 175.961 79.2234 175.83 79.412 175.645C79.761 175.295 79.9572 174.825 80.1117 174.344C80.1395 174.22 80.1681 174.098 80.1823 173.991C80.4742 174.189 80.8356 174.304 81.1703 174.031C81.784 173.581 81.898 172.698 81.7747 172.002C81.7278 171.722 81.6444 171.447 81.5264 171.183L81.5542 171.181C82.1672 170.971 82.0445 170.095 81.7951 169.668C81.6129 169.291 81.3701 168.939 81.0744 168.624C81.1308 168.525 81.146 168.411 81.1171 168.303C81.0494 167.633 80.4522 167.194 79.9098 167.02C79.2426 166.783 78.3378 166.825 77.8932 166.506C77.7122 166.35 77.5787 166.156 77.5051 165.942C77.4773 165.914 77.4774 165.884 77.4635 165.84C77.5234 165.713 77.5749 165.582 77.6176 165.449C78.5424 163.344 79.4663 161.48 80.7796 159.728C80.8143 159.936 80.8323 160.145 80.8335 160.355C80.8179 160.914 80.7326 161.553 81.149 161.935C81.6347 162.445 82.4834 162.409 82.8618 161.665C83.0856 161.253 83.101 160.754 83.3527 160.339C83.4253 160.215 83.5094 160.096 83.6042 159.984C83.7561 160.406 83.6011 161.068 83.4467 161.549C83.0532 162.851 81.9233 163.727 81.474 165.064C81.3471 165.633 81.7362 165.867 82.1261 165.799C82.0552 166.242 81.9705 166.671 82.0389 167.101C82.2723 168.207 83.2033 168.735 84.2063 168.428C84.233 168.817 84.2597 169.205 84.4119 169.537C84.7159 170.29 85.5216 170.845 86.3301 170.557C86.6431 170.424 86.9122 170.222 87.1113 169.97C87.5681 170.874 87.7032 172.276 88.8719 172.404C89.2333 172.49 89.6236 172.362 89.9167 172.078C90.1197 172.17 90.3344 172.241 90.5561 172.288C90.987 172.322 91.4056 172.131 91.7683 171.856C92.982 170.881 92.8895 169.16 92.4337 167.925C92.4337 167.895 92.4198 167.881 92.4198 167.85C92.4615 167.831 92.5032 167.842 92.5449 167.823C94.05 167.167 93.0111 165.416 92.2056 164.801L92.1083 164.705C93.0013 163.987 92.2946 162.897 91.4054 162.32C91.2386 162.216 91.0996 162.078 90.9328 161.974C91.148 161.794 91.2946 161.559 91.3523 161.302C91.5072 160.67 91.0215 160.19 90.5628 159.978C90.2757 159.864 89.9781 159.772 89.6732 159.703C89.7382 159.604 89.769 159.49 89.7619 159.376C89.7548 159.261 89.7101 159.151 89.6333 159.059C89.3004 158.67 88.7298 158.589 88.2294 158.637C88.0487 158.67 87.8819 158.716 87.6863 158.765C87.5195 158.54 86.9774 158.547 86.6847 158.59C85.9051 158.665 85.3058 158.918 84.6942 158.676C84.1521 158.442 83.903 157.924 83.6402 157.363C83.5442 157.129 83.4658 156.891 83.4056 156.648C84.6762 155.247 85.9882 153.947 87.3559 152.672C87.4709 153.086 87.5212 153.511 87.5054 153.937C87.4888 154.826 87.1777 156.541 88.3888 156.44C88.5815 156.399 88.7591 156.315 88.9045 156.195C89.0563 156.677 89.2497 157.17 89.5966 157.513C90.1654 158.166 91.5565 158.303 91.9357 157.228C92.0263 156.91 92.0401 156.578 91.9763 156.255C91.9125 155.932 91.7725 155.624 91.5654 155.353C91.2465 154.917 90.4826 154.373 90.8036 154.056C90.8592 153.991 90.9982 154.007 91.2351 154.03C91.3537 154.057 91.4746 154.076 91.5966 154.085C91.7947 154.752 92.1226 155.382 92.5655 155.948C93.4254 157.009 94.4388 157.89 95.4104 158.82C95.9795 159.352 96.7843 160.208 97.6353 159.539C97.7949 159.398 97.898 159.213 97.9291 159.015C98.4017 159.3 98.8882 159.6 99.4581 159.59C100.279 159.617 100.588 158.654 100.535 157.907C100.528 157.867 100.528 157.826 100.535 157.786C101.077 158.02 101.661 158.115 102.122 157.513C102.919 156.248 102.55 154.012 101.369 153.357C101.285 153.305 101.188 153.27 101.105 153.217C101.184 153.119 101.237 153.006 101.259 152.886C101.414 152.225 100.956 151.651 100.456 151.399C100.136 151.264 99.7885 151.282 99.44 151.27C99.4235 151.161 99.3645 151.06 99.2732 150.985C98.9118 150.689 98.4392 150.644 97.9944 150.567C98.6487 150.489 99.2062 150.255 99.5693 149.798C99.6902 149.624 99.7756 149.433 99.8215 149.232C100.476 149.185 101.158 149.074 101.716 148.659C102.302 148.302 102.652 147.531 102.375 146.956C102.725 146.857 103.045 146.687 103.309 146.46C104.342 145.518 104.136 144.289 103.025 143.643C102.811 143.515 102.577 143.416 102.33 143.349C103.278 142.776 104.352 142.116 104.564 140.847C104.719 140.245 104.526 139.632 104.095 139.297C103.108 138.655 101.828 138.898 100.671 139.264C100.813 139.019 100.895 138.75 100.91 138.474C100.968 137.596 100.038 137.008 99.2857 137.14C98.8454 137.205 98.4293 137.363 98.0735 137.603L98.0596 137.619C98.0624 136.656 97.2548 136.764 96.4318 137.399C95.6369 137.942 95.0083 138.74 94.5048 139.601C94.2692 139.217 93.8237 139.29 93.4468 139.672L93.3773 139.754C93.5876 139.207 93.5752 138.682 92.9077 138.445C92.8239 138.414 92.7343 138.398 92.6436 138.396C92.9796 137.731 93.2879 137.01 93.1229 136.303C92.93 135.599 92.0943 135.619 91.5649 136.001C91.5591 136.01 91.5512 136.018 91.5416 136.025C91.532 136.031 91.5209 136.035 91.5093 136.037C91.5522 135.626 91.6509 135.211 91.4988 134.849C91.167 134.038 90.1516 133.82 89.454 134.428C89.3766 134.494 89.3065 134.566 89.2447 134.644C88.1466 134.313 87.2374 135.71 86.9976 136.801C86.7335 136.54 86.4277 136.389 86.0517 136.591C85.2292 137.046 84.934 138.113 84.8617 139.008C84.8403 139.218 84.8397 139.429 84.8599 139.64C84.7155 139.68 84.5847 139.752 84.4798 139.848C84.3749 139.945 84.2993 140.064 84.2598 140.194C83.8378 141.769 84.9749 143.225 85.5145 144.362C85.6647 144.688 85.7893 145.023 85.8874 145.365C85.5707 145.153 85.1858 145.037 84.7893 145.034C84.5862 145.036 84.3905 145.101 84.2353 145.218C84.0802 145.334 83.9753 145.495 83.9385 145.672C83.9161 145.892 83.9688 146.112 84.0897 146.305C84.2069 146.578 84.3654 146.836 84.5608 147.072C84.811 147.349 85.0463 147.642 85.3239 147.917C85.2249 147.94 85.1339 147.985 85.059 148.047C84.6263 148.495 85.0698 149.145 85.3053 149.529C85.4506 149.717 85.6235 149.888 85.8196 150.036C85.7624 150.523 86.6508 151.371 86.9146 151.571C87.0544 151.686 87.203 151.793 87.3594 151.89C86.0197 153.102 84.7356 154.369 83.4931 155.677C83.422 155.765 83.3427 155.848 83.2559 155.925C83.1403 155.868 83.0193 155.819 82.8945 155.779C82.7151 155.716 82.5467 155.631 82.3941 155.526C81.7825 155.164 81.3254 154.44 81.7313 153.664C81.8994 153.317 82.3878 152.864 82.5978 152.407C82.6436 152.279 82.6576 152.144 82.6387 152.01C82.6199 151.877 82.5687 151.749 82.4887 151.635C82.7548 151.113 83.3962 150.66 83.5928 150.069C83.6224 149.956 83.6161 149.838 83.5747 149.728C83.5332 149.617 83.4582 149.52 83.358 149.445C83.4553 149.27 83.5678 149.079 83.6658 148.904C84.1131 148.199 84.2836 147.008 83.2394 147.124C83.1838 147.129 83.1422 147.148 83.0866 147.154C83.271 145.947 83.9578 144.271 82.4556 143.934C82.345 143.919 82.2325 143.92 82.122 143.936C82.3186 143.345 82.5709 142.719 82.4056 142.103C82.2275 141.112 81.0583 141.194 80.361 141.652C80.2066 141.75 80.066 141.865 79.9425 141.993C79.7779 141.106 79.4046 140.284 78.4998 140.326C76.8013 140.519 76.0166 142.34 75.831 143.968C75.8171 144.045 75.8171 144.105 75.8032 144.181C75.7588 144.167 75.7114 144.161 75.6642 144.165C75.1777 144.106 74.6751 144.486 74.3537 144.892C73.627 145.925 73.8736 147.286 74.2466 148.319C74.2605 148.362 74.2883 148.39 74.3022 148.434C73.8839 148.654 73.7014 149.229 73.7836 149.672C73.8496 149.965 73.9918 150.24 74.1989 150.475C74.3576 150.66 74.5621 150.81 74.7966 150.914C74.7811 151.026 74.7956 151.139 74.8388 151.245C74.8821 151.351 74.9529 151.446 75.0454 151.522C75.4207 151.893 76.0323 152.135 76.3649 152.434C76.5552 152.651 76.7267 152.881 76.878 153.122C76.2644 153.542 75.8448 154.244 76.1488 154.998C76.632 156.381 78.0491 157.268 79.4553 157.118C80.1514 157.051 80.8488 156.533 81.3778 156.452C81.6002 156.43 81.8226 156.56 81.9755 156.771C82.0589 156.883 82.1006 156.984 82.1562 157.069C80.8855 158.5 79.6564 160.003 78.719 161.703C78.3833 162.277 78.0755 162.878 77.7674 163.48C77.0984 163.845 76.4861 163.783 75.9863 163.35C75.4867 162.826 75.6702 161.951 75.5751 161.132C75.5217 160.762 75.3648 160.41 75.1188 160.107C74.8547 159.907 74.4655 159.794 74.1311 159.947C74.0638 159.694 73.9087 159.467 73.6877 159.297C73.2429 158.978 72.6304 159.067 72.3785 159.543C72.0727 159.241 71.7253 159.019 71.2805 159.001C70.5848 158.918 70.0267 159.393 69.9691 160.06C69.623 160.046 69.2809 160.132 68.9942 160.304C68.0879 160.858 67.6384 162.285 68.3042 163.094L68.332 163.122C67.76 163.583 67.4653 164.439 68.3834 164.591C68.7556 164.633 69.1338 164.592 69.4833 164.471C69.3329 164.791 69.2654 165.137 69.2857 165.483C69.2855 165.653 69.3477 165.819 69.4628 165.954C69.578 166.09 69.7398 166.188 69.9237 166.235C70.1878 166.284 70.4805 166.211 70.7452 166.141C70.8031 166.12 70.8589 166.094 70.912 166.064C70.9092 167.028 71.8269 167.331 72.8858 166.748C72.9804 166.691 73.0692 166.627 73.1508 166.557C73.3533 166.602 73.564 166.61 73.77 166.58C73.9759 166.549 74.1727 166.482 74.3482 166.382C74.6131 166.221 74.7949 165.917 74.9488 165.647C75.2987 164.996 75.2595 164.112 75.8855 164.187C76.1686 164.189 76.4463 164.256 76.6917 164.381C76.8724 164.439 77.0392 164.633 77.2338 164.554C77.1218 164.806 76.9957 165.074 76.8976 165.339C76.8633 165.355 76.8345 165.378 76.8142 165.407C76.5751 166.228 75.7254 166.505 75.0834 167.139C74.6939 167.519 74.3986 167.968 74.2165 168.456C74.1851 168.531 74.1618 168.609 74.147 168.688C73.6725 169.155 73.1556 169.822 73.4323 170.367C73.493 170.466 73.573 170.555 73.6686 170.63C73.5516 171.031 73.5174 171.447 73.5677 171.859C73.5941 172.368 73.676 172.902 73.9256 173.209C73.2989 173.374 72.8157 172.021 71.7857 172.03C71.6531 172.012 71.5178 172.022 71.3899 172.058C71.262 172.093 71.145 172.154 71.0475 172.236C70.1162 172.01 69.401 173.628 70.1362 174.506C70.3023 174.667 70.5211 174.777 70.7617 174.822C70.7412 174.937 70.7553 175.055 70.8026 175.164C71.0667 175.485 71.5254 175.395 71.9019 175.224C72.1236 175.564 72.6386 175.589 73.0009 175.404C73.3356 175.192 73.5455 174.795 73.8108 174.484C73.9081 174.339 74.1597 174.164 74.2014 174.175L74.4933 174.102C74.2656 175.525 74.1761 176.963 74.226 178.4C74.304 180.319 74.6883 182.178 75.1843 183.966C75.6798 185.875 76.5098 187.661 77.6746 189.144C78.0075 189.564 78.3682 189.98 78.7289 190.367C78.7605 190.411 78.8081 190.444 78.8637 190.46C78.9193 190.477 78.9797 190.476 79.0347 190.458C79.5636 190.497 79.5649 190.257 79.3149 190.07ZM89.944 148.014C89.9778 147.239 90.2761 146.491 90.7991 145.871C90.8644 145.786 90.9392 145.709 91.0225 145.638C90.9227 146.476 90.8785 147.307 90.8205 148.126C90.7917 148.459 90.7767 148.807 90.7479 149.141C90.6367 149.242 90.5108 149.329 90.4132 149.414C90.3841 149.392 90.3644 149.362 90.3576 149.329C90.1063 148.925 89.9646 148.475 89.944 148.014V148.014ZM91.2297 151.036C90.9494 150.863 90.713 150.639 90.5357 150.38C90.4731 150.288 90.4174 150.193 90.3689 150.095C90.4106 150.106 90.4801 150.084 90.5218 150.095C90.7581 150.057 90.8415 150.049 91.0927 150.025C91.5866 149.97 92.0854 149.958 92.5821 149.987C93.3613 150.033 94.5574 150.339 95.7539 150.526L95.5037 150.55C94.5845 150.728 93.5534 151.158 92.7598 151.219C92.1477 151.218 91.7022 151.261 91.2297 151.036V151.036Z" fill="#319991"/>
<path d="M83.9023 180.412C83.1455 180.437 82.3876 180.414 81.6344 180.343C79.2308 180.159 77.0915 179.568 74.6815 178.575C70.2344 176.865 66.2579 174.318 63.0265 171.11C63.3844 171.286 63.6991 171.489 64.0641 171.689C64.5396 172.006 65.0242 172.003 65.5158 172.025C65.9068 172.052 66.3291 172.273 66.7956 172.296C67.5063 172.281 67.9404 171.668 67.7251 171.017C68.2829 170.741 68.6236 170.157 68.5269 169.476C68.4157 168.918 68.0591 168.398 67.6599 167.905C67.5487 167.789 67.4388 167.672 67.3352 167.58C67.7661 167.482 68.1624 167.263 68.1221 166.775C68.1018 165.917 67.2411 165.156 66.4036 164.737C66.0679 164.566 65.7109 164.429 65.3399 164.331L65.3579 164.305C65.5951 163.63 64.5645 163.074 63.919 162.963C63.378 162.834 62.8186 162.774 62.2584 162.787C62.1949 162.665 62.0848 162.567 61.9476 162.51C61.1785 162.062 60.2587 162.237 59.6646 162.565C58.9087 162.951 58.2727 163.747 57.5971 163.883C57.2938 163.919 56.9853 163.885 56.7005 163.786C56.6508 163.783 56.6028 163.769 56.5606 163.745C56.4692 163.598 56.3681 163.457 56.258 163.32C54.6991 160.955 53.3978 158.771 52.5104 156.343C52.7588 156.47 52.9968 156.612 53.2224 156.769C53.8086 157.202 54.4299 157.756 55.1517 157.691C56.0634 157.664 56.6635 156.919 56.1515 156.04C55.878 155.54 55.3562 155.152 55.1007 154.627C55.0221 154.472 54.9581 154.311 54.9096 154.147C55.4756 154.336 56.0679 154.965 56.4664 155.458C57.5645 156.77 57.6523 158.385 58.746 159.77C59.2603 160.306 59.8024 160.152 60.0237 159.772C60.445 160.165 60.8411 160.56 61.3529 160.826C62.7133 161.461 63.9788 161.071 64.4047 159.992C64.8411 160.262 65.2774 160.532 65.747 160.652C66.7824 160.962 67.9827 160.698 68.2821 159.798C68.3756 159.434 68.3617 159.055 68.2415 158.697C69.5535 158.991 71.1562 159.932 72.1732 159.04C72.5371 158.799 72.6938 158.373 72.6103 157.911C72.8616 157.809 73.0985 157.68 73.3158 157.528C73.6772 157.189 73.7872 156.692 73.7649 156.178C73.6347 154.419 71.7216 153.202 70.0556 152.658C70.0233 152.635 69.9982 152.636 69.9661 152.614C69.977 152.564 70.0203 152.537 70.0314 152.487C70.4612 150.721 67.8041 150.282 66.5396 150.5L66.3636 150.51C66.2663 149.215 64.5667 148.992 63.2802 149.309C63.0429 149.371 62.7916 149.386 62.5543 149.448C62.5236 149.131 62.3823 148.83 62.1499 148.588C61.5899 147.981 60.7103 148.031 60.1383 148.259C59.7997 148.416 59.4769 148.598 59.1734 148.804C59.1163 148.675 59.0178 148.563 58.89 148.483C58.7622 148.403 58.6108 148.358 58.4545 148.354C57.7873 148.342 57.2715 148.764 56.9458 149.224C56.8443 149.401 56.768 149.577 56.6735 149.779C56.3076 149.75 55.9066 150.215 55.7329 150.494C55.2264 151.21 55.0466 151.907 54.3269 152.242C53.6684 152.524 52.9266 152.345 52.1274 152.145C51.8052 152.05 51.4905 151.937 51.1853 151.805C50.6409 149.677 50.2363 147.589 49.8999 145.474C50.4292 145.688 50.9228 145.965 51.3667 146.299C52.3069 146.982 53.9104 148.536 54.7126 147.435C54.8134 147.241 54.8565 147.028 54.8377 146.815C55.4681 147.049 56.1417 147.257 56.7698 147.221C57.8968 147.232 59.0911 146.158 58.2249 145.03C57.9523 144.714 57.6077 144.452 57.2135 144.263C56.8193 144.074 56.3845 143.961 55.9376 143.931C55.2309 143.873 54.0739 144.11 53.9763 143.6C53.9485 143.503 54.0707 143.398 54.2727 143.215C54.3914 143.136 54.5023 143.048 54.6043 142.951C55.4673 143.285 56.3893 143.483 57.3287 143.534C59.1121 143.606 60.8176 143.412 62.545 143.29C63.5433 143.209 65.0652 143.173 64.9894 141.95C64.9577 141.709 64.838 141.483 64.6485 141.307C65.31 141.123 65.9968 140.937 66.4156 140.447C67.0618 139.773 66.2634 138.787 65.4228 138.27C65.3749 138.246 65.3315 138.215 65.2941 138.179C65.9526 137.897 66.4933 137.474 66.1965 136.632C65.4411 135.006 62.7677 133.635 61.1786 134.142C61.06 134.173 60.9484 134.228 60.8299 134.259C60.7843 134.118 60.7027 133.989 60.5915 133.88C59.9992 133.251 59.0412 133.207 58.3939 133.44C58.0089 133.609 57.7667 133.917 57.4923 134.202C57.3628 134.133 57.2104 134.107 57.0614 134.128C56.4724 134.21 56.0684 134.576 55.6503 134.893C56.0592 134.282 56.228 133.634 56.0127 132.984C55.917 132.751 55.7759 132.534 55.5957 132.345C56.0369 131.756 56.4316 131.096 56.4073 130.312C56.4655 129.548 55.9033 128.672 55.0789 128.473C55.2368 128.102 55.2956 127.704 55.2505 127.31C55.019 125.728 53.5479 124.977 52.02 125.431C51.7218 125.515 51.4393 125.639 51.1817 125.797C51.282 124.564 51.3831 123.16 50.1836 122.026C49.6554 121.442 48.8533 121.144 48.1709 121.256C46.7404 121.606 46.0371 122.872 45.5599 124.126C45.4035 123.821 45.1761 123.55 44.8927 123.329C43.9959 122.619 42.6659 122.964 42.242 123.699C41.9794 124.12 41.8362 124.591 41.825 125.072L41.832 125.097C40.8025 124.37 40.31 125.134 40.3717 126.307C40.3549 127.388 40.7362 128.52 41.2792 129.593C40.6911 129.504 40.434 129.935 40.5598 130.541L40.5949 130.662C40.1675 130.073 39.5954 129.688 38.8396 130.074C38.7434 130.122 38.6579 130.185 38.5874 130.26C38.1287 129.476 37.5877 128.672 36.707 128.28C35.8081 127.914 35.2012 128.635 35.2113 129.37C35.217 129.382 35.2196 129.395 35.2189 129.408C35.2182 129.42 35.2142 129.433 35.2073 129.444C34.8002 129.099 34.4289 128.703 33.9274 128.559C32.8094 128.23 31.8114 128.924 31.9383 129.972C31.9505 130.087 31.9752 130.2 32.0118 130.311C30.8303 130.99 31.6425 132.81 32.6309 133.834C32.1535 133.861 31.7615 134.005 31.6942 134.475C31.5629 135.513 32.4829 136.565 33.3868 137.3C33.5958 137.476 33.8219 137.636 34.0625 137.777C33.9967 137.929 33.9752 138.094 34 138.255C34.0248 138.417 34.0951 138.57 34.2044 138.701C35.5741 140.243 37.9887 140.378 39.6123 140.777C40.0746 140.895 40.5271 141.042 40.9666 141.216C40.5011 141.324 40.087 141.562 39.7851 141.895C39.635 142.069 39.5573 142.283 39.5652 142.502C39.5732 142.721 39.6663 142.93 39.8288 143.095C40.047 143.279 40.3228 143.401 40.62 143.443C41.0011 143.55 41.3968 143.61 41.7962 143.622C42.2807 143.62 42.7722 143.641 43.2749 143.613C43.2257 143.714 43.2053 143.825 43.2156 143.935C43.3697 144.638 44.3991 144.752 44.9872 144.841C45.2984 144.861 45.6111 144.843 45.9171 144.789C46.3957 145.204 47.9719 145.091 48.3851 145.018C48.6135 144.987 48.8392 144.942 49.0606 144.882C49.3507 146.927 49.7417 148.966 50.2072 151.001C50.2485 151.127 50.2778 151.257 50.2948 151.388C50.146 151.443 50.0028 151.508 49.8665 151.584C49.6641 151.688 49.4462 151.767 49.2192 151.817C48.3713 152.061 47.2519 151.903 46.726 150.976C46.4805 150.572 46.3627 149.818 46.0318 149.297C45.9291 149.162 45.7947 149.049 45.6378 148.964C45.4809 148.88 45.3052 148.827 45.123 148.809C44.764 148.191 44.7616 147.308 44.2769 146.697C44.178 146.586 44.0467 146.503 43.8974 146.455C43.7482 146.407 43.5869 146.396 43.4315 146.425C43.3178 146.211 43.1972 145.972 43.084 145.758C42.6656 144.849 41.5193 143.81 40.8571 144.779C40.821 144.83 40.8098 144.88 40.7737 144.931C39.62 143.867 38.3422 142.026 36.8506 143.042C36.7518 143.125 36.6678 143.22 36.6013 143.326C36.1166 142.715 35.636 142.03 34.8517 141.707C33.6563 141.111 32.864 142.162 32.8305 143.096C32.8196 143.301 32.8365 143.506 32.881 143.707C31.8072 143.178 30.646 142.875 30.0098 143.672C28.9387 145.253 30.2984 147.287 31.902 148.669C31.9735 148.738 32.0378 148.784 32.1093 148.853C32.0603 148.88 32.0185 148.916 31.9867 148.958C31.5574 149.326 31.5858 150.036 31.78 150.614C32.3392 152.005 33.982 152.821 35.3684 153.282C35.4258 153.304 35.476 153.301 35.5334 153.322C35.455 153.842 35.9327 154.428 36.4696 154.693C36.8327 154.857 37.2341 154.944 37.6417 154.946C37.9594 154.951 38.2741 154.892 38.5616 154.772C38.7828 155.005 39.1236 155.035 39.4001 155.019C40.0786 154.981 40.7983 154.646 41.3693 154.589C41.7454 154.592 42.1208 154.62 42.4922 154.673C42.4803 155.508 42.9168 156.391 43.9517 156.701C45.7965 157.333 47.8129 156.803 48.7103 155.501C49.1625 154.862 49.1322 153.883 49.4437 153.374C49.5884 153.17 49.8939 153.079 50.2347 153.109C50.4177 153.123 50.5575 153.165 50.6901 153.182C51.2667 155.333 51.9508 157.502 53.0663 159.574C53.4284 160.291 53.8407 161.003 54.2531 161.716C54.1406 162.556 53.6137 163.027 52.7736 163.124C51.8367 163.152 51.0373 162.338 50.0892 161.802C49.6527 161.569 49.1574 161.436 48.6486 161.417C48.2354 161.489 47.8213 161.733 47.7329 162.131C47.4117 161.998 47.0515 161.958 46.7034 162.017C46.028 162.153 45.6622 162.738 45.982 163.309C45.4291 163.34 44.9295 163.466 44.5758 163.83C43.9626 164.355 44.0513 165.184 44.7231 165.735C44.4471 166.017 44.2813 166.37 44.2505 166.743C44.1614 167.926 45.3519 169.38 46.7191 169.426L46.7695 169.423C46.833 170.253 47.5278 171.147 48.3819 170.485C48.7068 170.202 48.9469 169.851 49.0803 169.464C49.3099 169.832 49.6295 170.149 50.0154 170.393C50.1972 170.521 50.421 170.593 50.6529 170.597C50.8848 170.602 51.112 170.539 51.3002 170.419C51.5525 170.234 51.6941 169.931 51.8177 169.654C51.8389 169.589 51.8537 169.522 51.8619 169.455C52.8914 170.182 53.9067 169.634 54.0792 168.3C54.0901 168.177 54.0884 168.054 54.0742 167.932C54.2749 167.795 54.4418 167.623 54.5645 167.426C54.6872 167.229 54.7631 167.012 54.7875 166.788C54.8146 166.443 54.6266 166.061 54.4525 165.727C54.019 164.942 53.0428 164.31 53.5945 163.838C53.8091 163.599 54.0896 163.415 54.4086 163.301C54.6067 163.192 54.9404 163.198 55.0027 162.973C55.1877 163.257 55.3798 163.566 55.59 163.848C55.5807 163.889 55.5842 163.931 55.6001 163.97C56.299 164.79 55.9564 165.717 56.1517 166.737C56.2661 167.352 56.5244 167.939 56.9101 168.461C56.9669 168.544 57.0325 168.623 57.1062 168.695C57.2492 169.448 57.5741 170.386 58.3664 170.563C58.5184 170.586 58.6739 170.586 58.8258 170.561C59.1668 170.962 59.5869 171.304 60.0655 171.571C60.6305 171.932 61.264 172.264 61.7806 172.284C61.4864 172.939 59.6737 172.329 58.9078 173.206C58.7893 173.305 58.6977 173.427 58.6397 173.562C58.5818 173.697 58.5591 173.842 58.5733 173.986C57.6295 174.603 58.8252 176.425 60.3181 176.464C60.6154 176.445 60.8984 176.343 61.1272 176.173C61.2352 176.277 61.3722 176.354 61.5243 176.395C62.0664 176.414 62.3166 175.958 62.4159 175.511C62.9467 175.579 63.3617 175.163 63.436 174.718C63.46 174.275 63.1934 173.799 63.0597 173.34C62.9781 173.149 62.9801 172.805 63.0233 172.778C63.0705 172.677 63.1178 172.577 63.1649 172.476C64.5193 173.738 65.9935 174.895 67.5712 175.933C69.6847 177.31 71.9649 178.384 74.2532 179.311C76.6702 180.328 79.2076 180.97 81.6725 181.101C82.3722 181.136 83.0903 181.144 83.7756 181.13C83.8464 181.137 83.9176 181.121 83.9773 181.087C84.0369 181.052 84.0814 181 84.1033 180.94C84.5478 180.523 84.2904 180.341 83.9023 180.412ZM46.8606 139.781C46.056 139.169 45.4798 138.354 45.2083 137.445C45.1676 137.326 45.1406 137.204 45.1279 137.081C45.9494 137.795 46.807 138.459 47.6395 139.123C47.9754 139.399 48.3363 139.673 48.6722 139.949C48.6963 140.119 48.6953 140.291 48.7125 140.437C48.6674 140.445 48.6205 140.439 48.5798 140.42C47.9584 140.329 47.3697 140.11 46.8606 139.78V139.781ZM51.064 140.967C50.6677 141.074 50.2506 141.106 49.8396 141.061C49.6945 141.044 49.5508 141.02 49.4093 140.987C49.4526 140.96 49.4816 140.884 49.5249 140.857C49.6625 140.629 49.7168 140.552 49.8796 140.322C50.1926 139.863 50.5544 139.432 50.9599 139.035C51.5951 138.41 52.8233 137.63 53.923 136.758C53.8686 136.835 53.8143 136.911 53.76 136.988C53.2596 137.899 52.9444 139.095 52.4127 139.812C51.9504 140.328 51.661 140.737 51.064 140.967V140.967Z" fill="#43C3B9"/>
<path d="M73.6821 175.201C74.1547 174.655 74.658 174.247 75.1435 173.637C75.1574 173.62 75.1713 173.586 75.1862 173.569C76.5017 172.811 78.0635 171.945 79.36 170.937C81.4051 169.334 83.1652 167.325 84.748 165.21C86.7752 162.633 88.3135 159.689 89.3959 156.579C89.8093 155.22 91.1719 152.25 90.2021 151.185C89.2569 150.637 86.8303 152.144 85.8914 152.731C82.1209 155.23 79.0464 158.465 76.905 162.186C75.491 164.753 75.0501 167.785 75.4951 170.537C75.5507 171.161 75.6377 171.938 75.4881 172.539C75.3803 172.867 75.2186 173.179 75.0083 173.464C74.9818 173.48 74.9576 173.499 74.9363 173.52C74.9182 173.545 74.9086 173.573 74.9085 173.602C74.6267 173.936 74.3202 174.252 73.9911 174.549C73.9051 174.638 73.8194 174.743 73.7334 174.832C73.7673 174.292 73.8012 173.752 73.8203 173.198C73.8215 170.881 73.546 168.613 73.2997 166.341C73.19 165.141 73.0655 163.927 72.912 162.731C73.8734 161.78 74.88 160.902 75.7521 159.866C77.5844 157.715 79.1856 155.416 80.5348 153C82.2708 149.685 84.3865 146.355 84.946 142.615C84.9753 141.824 85.0533 140.506 84.2878 140.189C84.1117 140.147 83.9233 140.233 83.7496 140.317L82.6204 140.879C81.5779 141.348 80.6272 141.963 79.8049 142.701C76.457 145.753 73.9277 150.425 73.119 154.936C72.7912 156.977 72.8728 159.032 72.6474 161.077V161.093C72.5989 160.831 72.5501 160.568 72.4873 160.324C72.0106 158.238 71.287 156.229 70.8104 154.143C70.5572 153.086 70.3183 152.011 70.0652 150.954V150.939C70.071 150.465 70.0642 150.088 70.1883 149.694C70.4246 149.035 71.0693 148.343 71.5529 147.622C72.6478 145.992 73.3884 144.153 74.2473 142.395C75.6095 139.424 76.8688 136.388 77.5405 133.186C77.7152 132.417 77.8326 131.64 77.8921 130.858C78.004 129.788 77.1603 129.985 76.5106 130.41C75.2094 131.205 74.0543 132.174 73.0863 133.283C72.229 134.332 71.6685 135.613 71.1214 136.862C70.3229 138.723 69.5546 140.645 69.2551 142.635C69.1228 143.781 69.1441 144.938 69.3185 146.079C69.4095 147.061 69.7181 147.954 69.9833 148.868C70.0442 149.002 70.0336 149.224 70.1084 149.357C70.0194 149.531 69.9541 149.713 69.9138 149.9C69.9009 149.997 69.8881 150.093 69.8753 150.189C69.6864 149.455 69.4979 148.737 69.2802 148.022C68.7242 146.387 68.0397 144.91 67.4703 143.339C66.9343 142.001 66.2969 140.707 65.7321 139.388C65.7426 139.359 65.7566 139.331 65.7738 139.304C65.8337 139.193 65.9 139.085 65.9725 138.981C66.4149 138.407 66.9613 137.931 67.4333 137.385C68.0632 136.679 68.7227 136 69.2932 135.238C69.8911 134.388 70.4311 133.507 70.9102 132.599C72.0569 130.601 72.7612 128.388 73.2608 126.153C73.4361 125.359 73.5093 124.578 73.6279 123.87C73.6804 123.549 73.7327 123.211 73.756 122.893C73.7534 122.752 73.7499 122.563 73.617 122.5C73.4404 122.427 73.2834 122.619 73.1538 122.729C72.8231 123.022 72.4922 123.298 72.1609 123.559C71.267 124.203 70.2983 124.745 69.4944 125.536C67.9758 126.975 66.8923 128.733 66.345 130.645C65.9786 132.171 66.08 133.719 66.0787 135.232C66.0657 136.117 66.0675 137.015 65.8923 137.808C65.8119 138.212 65.6878 138.605 65.5784 139.013C65.224 138.166 64.9204 137.303 64.6689 136.427C64.6219 136.25 64.5894 136.069 64.5716 135.887C64.6099 135.826 64.6335 135.759 64.6411 135.69C64.6666 135.535 64.7078 135.382 64.7643 135.233C65.0261 134.382 65.3467 133.54 65.4914 132.671C65.5935 131.87 65.4775 131.081 65.4333 130.298C65.3238 128.857 65.1023 127.425 64.7701 126.012C63.858 122.686 62.6608 119.427 61.1889 116.263C61.0385 116.028 60.8136 114.921 60.4833 115.229C60.1304 115.902 59.9403 116.682 59.6758 117.391C58.5558 120.852 58.7261 124.552 59.6776 127.826C59.9632 128.789 60.3124 129.736 60.7231 130.663C61.1638 131.587 61.7488 132.414 62.2758 133.265C62.7727 134.072 63.313 134.858 63.9966 135.484C64.0772 135.565 64.1666 135.639 64.2636 135.704C64.4072 136.708 64.6652 137.696 65.0337 138.653C63.3612 136.68 62.3295 133.81 59.9679 132.503C58.9046 131.875 57.7003 131.532 56.4697 131.349C55.5387 131.167 54.5792 131.128 53.6333 131.235C53.1674 131.323 52.67 131.288 52.2362 131.53C51.6481 132.121 52.4532 133.001 52.8257 133.397C53.5402 134.115 54.4118 134.64 55.2539 135.153C56.0075 135.614 56.7322 136.094 57.5283 136.486C57.294 138.043 57.031 139.635 57.3521 141.205C57.9498 144.348 59.7707 147.201 62.468 148.499C63.2932 148.888 64.2151 148.966 65.109 149.11C65.6345 149.185 66.1331 149.367 66.5652 149.643C67.3793 150.223 68.2223 150.783 69.1497 151.16C69.2199 151.194 69.2938 151.222 69.3703 151.243C69.69 152.702 69.9794 154.18 70.3276 155.636C70.8329 157.686 71.4687 159.69 71.7998 161.81C71.8668 162.275 71.9338 162.739 71.9859 163.19C70.8461 160.806 70.0097 158.211 68.5238 156.058C67.537 154.658 66.4127 153.338 65.1642 152.114C64.3174 151.349 63.4396 150.494 62.3377 150.154C60.4871 149.621 58.464 150.039 56.6096 150.09C56.1017 150.277 56.5245 151.03 56.6326 151.348C57.381 153.117 58.6768 154.458 59.957 155.753C61.2228 157.066 62.4173 158.451 63.8116 159.607C64.8517 160.553 66.1051 161.174 67.3716 161.73C68.2851 162.156 69.1422 162.683 70.0136 163.192C70.6637 163.58 71.3606 163.903 72.0912 164.155C72.1974 165.166 72.2889 166.164 72.3805 167.178C72.5771 169.124 72.7558 170.899 72.7918 172.865C72.7969 173.936 72.7434 174.999 72.6607 176.065C71.7294 175.468 71.2838 174.277 70.7664 173.157C70.0215 171.577 69.0888 170.113 68.1277 168.684C67.1517 167.258 66.0625 166.018 65.0884 164.685C63.7533 162.798 62.3465 160.966 60.7388 159.347C59.9949 158.618 59.1218 158.014 58.1228 157.709C57.4305 157.399 57.3674 157.942 57.4665 158.561C58.0907 161.527 58.2949 164.686 59.5716 167.385C60.0708 168.471 60.6615 169.522 61.3388 170.529C61.8048 171.245 62.2858 171.975 62.9095 172.546C64.4986 173.962 66.4591 174.907 68.4713 175.484C69.1767 175.714 69.9219 175.718 70.6675 175.723C71.0241 175.732 71.381 175.71 71.7328 175.657L71.8057 175.648C71.9517 175.829 72.1215 175.994 72.3114 176.139C72.4125 176.218 72.5214 176.29 72.6368 176.352C72.4557 178.344 72.121 180.322 71.6352 182.273C71.4935 181.721 71.2776 181.186 70.9923 180.68C70.6702 180.173 70.2103 179.747 69.6547 179.439C68.3729 178.853 67.0567 178.775 65.8183 178.168C64.7433 177.699 63.9279 177.041 62.9934 176.287C62.4002 175.807 61.8061 175.28 61.0712 175.038C59.8369 174.651 58.4624 175.385 57.4112 176.221C57.0228 176.551 56.6198 176.884 56.2612 177.242C55.9326 177.645 56.1888 178.071 56.4713 178.336C57.0656 178.879 57.8161 179.167 58.5797 179.39C59.4787 179.653 60.362 179.956 61.2263 180.299C62.2574 180.758 63.3183 181.244 64.5241 180.878C65.222 180.699 65.8446 180.356 66.4701 180.249C67.7971 180.12 68.8987 181.232 69.9385 182.163C70.2586 182.445 70.6475 182.657 71.0749 182.783C71.215 182.829 71.3659 182.843 71.5138 182.824C71.1326 184.336 70.7808 185.86 70.282 187.339C70.2264 187.503 70.2264 187.472 70.1569 187.654V187.685C70.1569 187.701 70.1569 187.701 70.143 187.718V187.734C70.1291 187.799 70.1598 187.858 70.2185 187.867C70.3895 187.874 70.5597 187.842 70.7135 187.776C70.9196 187.861 71.1519 186.982 71.2082 186.865C71.5269 185.928 71.8014 184.965 72.0762 184.017C72.3929 184.007 72.7044 183.943 72.9936 183.827C73.2588 183.698 73.5017 183.536 73.7152 183.346C73.7455 183.405 73.8475 183.393 73.9347 183.367C74.4006 183.279 74.8838 183.331 75.409 183.299C76.0159 183.252 76.6193 183.173 77.216 183.064C78.6861 182.761 80.0919 182.149 81.4515 181.402C83.8006 180.209 85.8295 178.576 87.3974 176.617C87.9534 175.872 88.553 175.106 88.7992 174.194C88.8395 174 88.9226 173.753 88.7885 173.612C88.6543 173.47 88.4224 173.561 88.2464 173.535C87.9186 173.542 87.5908 173.523 87.2666 173.48C86.0798 173.293 84.8787 173.122 83.6421 173.414C81.1101 173.956 77.7552 176.631 76.3681 179.068C75.7148 180.125 75.2996 181.341 74.5709 182.233C74.1729 182.688 73.7144 183.098 73.2055 183.454C72.9086 183.633 72.5613 183.735 72.2027 183.749L72.1737 183.752C72.2833 183.361 72.3927 182.953 72.5024 182.562C73.0814 180.135 73.4756 177.675 73.6821 175.201V175.201ZM67.4762 149.927C67.4599 149.91 67.4397 149.897 67.4169 149.887C67.4289 149.744 67.2942 149.571 67.2919 149.414C67.1452 148.596 67.013 147.761 66.6779 147.013C66.0055 145.408 65.0883 143.99 64.1997 142.537C63.3552 141.11 62.338 139.814 61.3928 138.462L60.9425 137.808C61.2807 137.925 61.6042 138.043 61.9424 138.16C62.9432 138.528 63.9301 138.96 64.999 139.13C65.0285 139.143 65.0576 139.139 65.087 139.151C65.1165 139.164 65.1316 139.193 65.1611 139.205L65.1903 139.202C65.5125 140.046 65.8784 140.868 66.2003 141.697C66.689 142.851 67.044 143.88 67.4456 145.061C67.8765 146.27 68.3049 147.306 68.6493 148.556C68.853 149.304 69.0278 150.071 69.1877 150.824C68.5875 150.572 68.0146 150.272 67.4762 149.927Z" fill="#98DED9"/>
<path d="M78.9659 176.6C79.3728 176.581 79.734 176.641 80.1731 176.598C80.1858 176.597 80.205 176.589 80.2177 176.587C81.0328 176.885 81.9867 177.254 82.8989 177.427C84.3435 177.694 85.8502 177.633 87.333 177.436C89.1784 177.243 90.9918 176.641 92.7016 175.737C93.4258 175.314 95.1835 174.613 95.2614 173.644C95.1324 172.925 93.5834 172.426 92.9827 172.235C90.5975 171.533 88.0251 171.513 85.6264 172.177C84.018 172.666 82.5835 173.849 81.6019 175.34C81.3621 175.655 81.0702 176.057 80.7622 176.261C80.589 176.358 80.3958 176.423 80.194 176.452C80.1778 176.446 80.1606 176.443 80.1432 176.442C80.1253 176.445 80.1092 176.454 80.0983 176.467C79.8506 176.482 79.6019 176.477 79.3552 176.452C79.2857 176.451 79.209 176.457 79.1392 176.456C79.3778 176.224 79.6163 175.991 79.8551 175.744C80.8241 174.675 81.6677 173.492 82.5239 172.321C82.984 171.712 83.4445 171.09 83.8861 170.463C84.6481 170.497 85.3963 170.586 86.1594 170.538C87.7532 170.447 89.327 170.172 90.8414 169.721C92.8847 169.045 95.0775 168.549 96.8527 167.097C97.1948 166.746 97.7751 166.176 97.6172 165.652C97.5624 165.558 97.4709 165.485 97.3598 165.446L96.6972 165.15C96.1348 164.862 95.5133 164.677 94.8692 164.605C92.3255 164.366 89.4143 165.279 87.2226 166.964C86.2452 167.745 85.4172 168.735 84.4771 169.568L84.4706 169.576C84.5618 169.431 84.6528 169.286 84.7312 169.142C85.4226 167.944 85.9882 166.659 86.6796 165.461C87.0255 164.848 87.3842 164.235 87.73 163.621L87.7365 163.614C87.8945 163.418 88.0856 163.244 88.3032 163.1C88.6683 162.912 89.202 162.909 89.6863 162.815C90.7822 162.601 91.8313 162.116 92.8919 161.727C94.6496 161.026 96.3957 160.243 97.9885 159.095C98.383 158.82 98.7529 158.519 99.0948 158.193C99.5842 157.754 99.1823 157.429 98.7585 157.306C97.9621 157.036 97.1122 156.914 96.2607 156.946C95.4975 157.009 94.7494 157.325 94.0204 157.632C92.9399 158.099 91.8458 158.608 90.9003 159.38C90.3528 159.865 89.8771 160.41 89.4846 161.002C89.1093 161.5 88.8524 162.064 88.5709 162.617C88.5379 162.709 88.4411 162.807 88.4142 162.905C88.3054 162.943 88.2039 162.995 88.1132 163.06L87.9781 163.175C88.2133 162.742 88.4421 162.318 88.6582 161.881C89.1308 160.852 89.4895 159.832 89.9301 158.827C90.2863 157.944 90.5859 157.033 90.9232 156.146C90.9392 156.137 90.9564 156.131 90.9744 156.128C91.043 156.106 91.1133 156.089 91.1847 156.076C91.5921 156.029 91.998 156.078 92.4048 156.059C92.9401 156.061 93.4751 156.035 94.0071 155.982C94.591 155.884 95.1647 155.743 95.7224 155.56C96.9921 155.202 98.1839 154.526 99.3075 153.74C99.7055 153.46 100.06 153.135 100.401 152.866C100.555 152.744 100.716 152.614 100.858 152.478C100.895 152.446 100.925 152.407 100.944 152.364C100.963 152.321 100.971 152.275 100.969 152.228C100.932 152.107 100.793 152.119 100.697 152.106C100.45 152.078 100.209 152.043 99.9745 152C99.3667 151.857 98.7729 151.631 98.138 151.6C96.9565 151.518 95.7797 151.804 94.8095 152.409C94.033 152.934 93.4243 153.699 92.7911 154.398C92.4167 154.8 92.0419 155.215 91.6438 155.496C91.4446 155.643 91.2332 155.763 91.0215 155.897C91.2325 155.385 91.4702 154.788 91.7582 154.255C91.8132 154.152 91.8763 154.052 91.947 153.957C91.9884 153.947 92.026 153.928 92.0558 153.9C92.1283 153.842 92.2079 153.792 92.2931 153.75C92.7482 153.486 93.2217 153.255 93.6397 152.925C94.0129 152.605 94.2989 152.183 94.6095 151.8C95.1817 151.063 95.6964 150.293 96.1498 149.494C97.2144 147.462 98.1224 145.368 98.8675 143.226C98.9082 143.044 99.2862 142.422 99.0322 142.401C98.6173 142.538 98.2194 142.805 97.8229 143.002C95.9521 144.049 94.4704 145.842 93.4624 147.823C93.1636 148.418 92.9 149.028 92.6726 149.648C92.4534 150.292 92.329 150.962 92.173 151.614C92.0089 152.228 91.9165 152.856 91.8972 153.487C91.8939 153.565 91.897 153.643 91.9065 153.72C91.5315 154.273 91.2164 154.856 90.9655 155.461C91.1566 153.726 91.9656 151.893 91.6171 150.126C91.4712 149.34 91.1867 148.578 90.7741 147.871C90.511 147.347 90.1654 146.859 89.7476 146.421C89.5344 146.232 89.3603 145.971 89.0951 145.869C88.6252 145.853 88.5623 146.656 88.5377 147.022C88.5317 147.695 88.594 148.366 88.7237 149.029C88.8167 149.613 88.8905 150.191 89.0281 150.764C88.2885 151.368 87.5234 151.975 86.9893 152.857C85.9021 154.603 85.3988 156.818 85.8782 158.745C86.0282 159.331 86.345 159.821 86.6233 160.328C86.7941 160.63 86.9053 160.956 86.952 161.291C87.0013 161.957 87.1168 162.617 87.2973 163.264C87.3093 163.315 87.3256 163.364 87.3459 163.412C86.8569 164.243 86.349 165.068 85.8725 165.912C85.2066 167.108 84.6099 168.347 83.8494 169.489C83.6805 169.736 83.5116 169.984 83.343 170.217C83.9079 168.555 84.6753 166.945 85.0124 165.218C85.2257 164.069 85.3514 162.907 85.3885 161.742C85.3873 160.972 85.4124 160.145 85.1369 159.445C84.6588 158.288 83.7178 157.484 82.9941 156.595C82.7234 156.431 82.5689 156.987 82.4769 157.187C82.0208 158.373 81.9512 159.631 81.8946 160.859C81.8251 162.089 81.6991 163.317 81.7444 164.537C81.7428 165.486 81.958 166.39 82.2053 167.271C82.3736 167.917 82.478 168.583 82.5945 169.247C82.678 169.745 82.8067 170.235 82.9793 170.715C82.5966 171.234 82.2147 171.74 81.8255 172.253C81.0863 173.249 80.4121 174.157 79.6041 175.083C79.1583 175.58 78.6939 176.045 78.217 176.496C78.1136 175.762 78.4427 174.992 78.7147 174.221C79.0781 173.115 79.3686 171.991 79.5847 170.855C79.8114 169.716 79.9169 168.607 80.1049 167.512C80.4065 165.988 80.6015 164.449 80.6887 162.904C80.7275 162.212 80.6239 161.519 80.3829 160.859C80.2504 160.375 79.9992 160.595 79.7782 160.929C78.7748 162.607 77.5316 164.167 76.887 166.042C76.6182 166.803 76.4029 167.579 76.2423 168.364C76.0998 168.924 76.0168 169.495 75.9944 170.069C76.02 171.469 76.3174 172.855 76.8734 174.165C77.054 174.59 77.3003 174.991 77.6052 175.356C77.7325 175.532 77.8766 175.697 78.0361 175.85L78.0674 175.882C78.0469 176.04 78.0422 176.199 78.0535 176.358C78.0586 176.445 78.07 176.531 78.0878 176.616C77.2067 177.432 76.252 178.181 75.2333 178.858C75.4152 178.522 75.5568 178.169 75.6558 177.806C75.7455 177.399 75.7496 176.982 75.6678 176.574C75.4272 175.672 74.9609 174.988 74.7454 174.098C74.5343 173.352 74.5004 172.646 74.4616 171.838C74.4376 171.324 74.4328 170.788 74.2557 170.314C73.9499 169.528 73.1226 169.19 72.3749 169.058C72.0895 169.013 71.8015 168.982 71.5123 168.964C71.2197 168.988 71.1385 169.311 71.1346 169.573C71.151 170.096 71.2724 170.612 71.493 171.098C71.7197 171.664 71.9335 172.231 72.1153 172.821C72.3142 173.541 72.5127 174.288 73.1226 174.712C73.4618 174.973 73.8407 175.121 74.1227 175.38C74.6787 175.974 74.6317 177.03 74.637 177.972C74.6408 178.26 74.6988 178.546 74.8085 178.817C74.8399 178.904 74.8906 178.984 74.9576 179.053C74.1811 179.564 73.4108 180.094 72.6037 180.532C72.5141 180.58 72.527 180.565 72.4246 180.615L72.4116 180.63C72.4052 180.637 72.4052 180.637 72.3925 180.638L72.3861 180.646C72.3699 180.657 72.3584 180.673 72.3536 180.691C72.3487 180.709 72.3506 180.728 72.3591 180.745C72.4154 180.827 72.4927 180.896 72.5848 180.946C72.6272 181.087 73.0827 180.795 73.1529 180.769C73.6653 180.493 74.1719 180.183 74.6719 179.881C74.7875 180.025 74.9321 180.148 75.0985 180.245C75.2465 180.314 75.4072 180.359 75.573 180.378C75.5591 180.421 75.6035 180.465 75.6476 180.496C75.8606 180.685 76.022 180.947 76.2343 181.191C76.4794 181.463 76.7407 181.724 77.0168 181.973C78.8198 183.382 81.1697 184.112 83.5683 184.008C84.0904 183.938 84.6377 183.879 85.1123 183.579C85.2087 183.509 85.3432 183.436 85.3514 183.305C85.3596 183.174 85.2338 183.102 85.1781 183.003C85.0491 182.841 84.933 182.671 84.8306 182.495C84.4595 181.824 84.0755 181.154 83.4855 180.68C82.2995 179.683 79.9107 179.267 78.3665 179.709C77.6778 179.876 77.0117 180.233 76.363 180.286C76.0161 180.3 75.6691 180.263 75.3354 180.178C75.1324 180.104 74.9578 179.979 74.8325 179.82L74.82 179.807C75.0251 179.68 75.2369 179.546 75.442 179.419C76.6993 178.565 77.8777 177.622 78.9659 176.6ZM87.178 161.871C87.1789 161.855 87.1771 161.839 87.1725 161.824C87.2368 161.763 87.2581 161.617 87.3227 161.543C87.6332 161.098 87.8915 160.625 88.0936 160.132C88.5099 159.06 88.7551 157.953 89.0259 156.844C89.3024 155.77 89.4586 154.67 89.6653 153.58C89.6996 153.405 89.734 153.231 89.7684 153.056C89.8477 153.276 89.9213 153.49 90 153.711C90.2252 154.373 90.4183 155.059 90.7523 155.664C90.7584 155.684 90.7709 155.697 90.7769 155.717C90.7829 155.737 90.7769 155.758 90.7823 155.779L90.7948 155.791C90.5643 156.339 90.3589 156.9 90.1348 157.441C89.8374 158.215 89.5417 158.865 89.2002 159.608C88.8584 160.379 88.5875 161.068 88.1951 161.815C87.9598 162.261 87.7054 162.701 87.4513 163.128C87.329 162.715 87.2377 162.295 87.178 161.871V161.871Z" fill="#42C2B9"/>
<path fill-rule="evenodd" clip-rule="evenodd" d="M60.6974 182.079H88.4685C88.4685 182.079 86.5586 185.325 84.7426 188.411C83.7723 190.06 82.3126 191.441 80.5216 192.404C78.7307 193.368 76.677 193.878 74.5832 193.878V193.878C72.4895 193.878 70.4358 193.368 68.6449 192.404C66.8539 191.441 65.3942 190.06 64.4239 188.411C62.6073 185.324 60.6974 182.079 60.6974 182.079Z" fill="#B2B7F0"/>
<path fill-rule="evenodd" clip-rule="evenodd" d="M85.396 182.079C80.7348 181.925 64.3962 181.376 60.4963 182.079C58.8676 182.373 61.9944 186.302 61.9944 186.302C61.9944 186.302 84.5662 183.706 88.4661 183.002C89.5248 182.811 86.4761 182.115 85.396 182.079Z" fill="black" fill-opacity="0.2"/>
<path fill-rule="evenodd" clip-rule="evenodd" d="M89.5808 179.382H59.5846V179.385C59.5845 179.86 59.6898 180.331 59.8944 180.769C60.0989 181.208 60.3988 181.607 60.7768 181.943C61.1548 182.279 61.6035 182.545 62.0974 182.727C62.5913 182.908 63.1206 183.002 63.6552 183.002H85.5102C86.0447 183.002 86.5741 182.908 87.068 182.727C87.5618 182.545 88.0106 182.279 88.3886 181.943C88.7666 181.607 89.0664 181.208 89.271 180.769C89.4755 180.331 89.5808 179.86 89.5808 179.385V179.382Z" fill="#1A2283"/>
<path fill-rule="evenodd" clip-rule="evenodd" d="M213.618 58.6577C213.618 56.9488 212.854 55.3099 211.494 54.1016C210.134 52.8933 208.289 52.2144 206.366 52.2145H169.014C167.091 52.2144 165.246 52.8933 163.886 54.1016C162.526 55.3099 161.762 56.9488 161.762 58.6577V58.6617C161.762 60.3706 162.526 62.0095 163.886 63.2178C165.246 64.4261 167.091 65.1049 169.014 65.1049H206.366C208.289 65.1049 210.134 64.4261 211.494 63.2178C212.854 62.0095 213.618 60.3706 213.618 58.6617V58.6577Z" fill="#737CE3"/>
<path fill-rule="evenodd" clip-rule="evenodd" d="M190.824 61.1719C190.736 61.2734 190.524 61.2227 190.234 61.0314C189.875 60.7758 189.554 60.4798 189.28 60.1509L187.512 58.1044C187.211 57.7633 186.956 57.3926 186.751 56.9996C186.585 56.6647 186.542 56.4191 186.629 56.318C186.717 56.2165 186.929 56.267 187.218 56.4583C187.578 56.714 187.899 57.01 188.173 57.339L189.941 59.3855C190.242 59.7266 190.497 60.0973 190.702 60.4902C190.867 60.825 190.911 61.0706 190.824 61.1719Z" fill="white"/>
<path fill-rule="evenodd" clip-rule="evenodd" d="M190.72 56.3036C190.808 56.4052 190.764 56.6506 190.598 56.9855C190.393 57.3784 190.138 57.749 189.838 58.0901L188.069 60.1366C187.795 60.4656 187.474 60.7616 187.115 61.0173C186.825 61.2086 186.613 61.2591 186.526 61.1576C186.438 61.0562 186.482 60.8109 186.647 60.476C186.852 60.083 187.107 59.7123 187.408 59.3711L189.176 57.3247C189.45 56.9958 189.771 56.6998 190.131 56.4442C190.42 56.2529 190.632 56.2021 190.72 56.3036V56.3036Z" fill="white"/>
<path fill-rule="evenodd" clip-rule="evenodd" d="M191.657 58.6316C191.657 58.7751 191.476 58.9128 191.154 59.0144C190.763 59.1254 190.353 59.1789 189.942 59.1729H187.441C187.03 59.1789 186.62 59.1254 186.228 59.0144C185.907 58.9129 185.726 58.7752 185.726 58.6316C185.726 58.4881 185.907 58.3504 186.228 58.2487C186.62 58.1378 187.03 58.0843 187.441 58.0903H189.942C190.354 58.0843 190.763 58.1379 191.155 58.2487C191.477 58.3503 191.658 58.488 191.658 58.6316H191.657Z" fill="white"/>
<path fill-rule="evenodd" clip-rule="evenodd" d="M181.814 61.1719C181.726 61.2734 181.514 61.2227 181.225 61.0314C180.865 60.7758 180.545 60.4798 180.27 60.1509L178.502 58.1044C178.202 57.7633 177.946 57.3926 177.741 56.9996C177.576 56.6647 177.533 56.4191 177.62 56.318C177.708 56.2165 177.92 56.267 178.209 56.4583C178.569 56.714 178.89 57.01 179.164 57.339L180.932 59.3855C181.232 59.7266 181.488 60.0972 181.693 60.4902C181.858 60.825 181.901 61.0706 181.814 61.1719Z" fill="white"/>
<path fill-rule="evenodd" clip-rule="evenodd" d="M181.71 56.3036C181.798 56.4052 181.754 56.6505 181.589 56.9855C181.384 57.3784 181.129 57.749 180.828 58.0901L179.06 60.137C178.786 60.4659 178.465 60.762 178.105 61.0176C177.816 61.2089 177.604 61.2594 177.516 61.1579C177.428 61.0565 177.472 60.8113 177.638 60.4763C177.843 60.0834 178.098 59.7127 178.398 59.3715L180.167 57.3251C180.441 56.9961 180.762 56.7002 181.121 56.4445C181.411 56.2532 181.623 56.2025 181.71 56.304V56.3036Z" fill="white"/>
<path fill-rule="evenodd" clip-rule="evenodd" d="M182.647 58.6316C182.647 58.7751 182.467 58.9128 182.145 59.0144C181.753 59.1254 181.343 59.1789 180.932 59.1729H178.431C178.02 59.1789 177.61 59.1254 177.218 59.0144C176.897 58.9129 176.716 58.7752 176.716 58.6316C176.716 58.4881 176.897 58.3504 177.218 58.2487C177.61 58.1378 178.02 58.0843 178.431 58.0903H180.932C181.343 58.0843 181.753 58.1379 182.145 58.2487C182.467 58.3503 182.647 58.488 182.647 58.6316Z" fill="white"/>
<path fill-rule="evenodd" clip-rule="evenodd" d="M172.838 61.1719C172.751 61.2734 172.539 61.2227 172.249 61.0314C171.89 60.7758 171.569 60.4798 171.295 60.1509L169.527 58.1044C169.226 57.7633 168.971 57.3926 168.766 56.9996C168.6 56.6647 168.557 56.4191 168.644 56.318C168.732 56.2165 168.944 56.267 169.233 56.4583C169.593 56.714 169.914 57.01 170.188 57.339L171.956 59.3855C172.257 59.7266 172.512 60.0973 172.717 60.4902C172.882 60.825 172.926 61.0706 172.838 61.1719Z" fill="white"/>
<path fill-rule="evenodd" clip-rule="evenodd" d="M172.735 56.3036C172.823 56.4052 172.779 56.6506 172.614 56.9855C172.409 57.3784 172.153 57.749 171.853 58.0901L170.085 60.1366C169.811 60.4656 169.49 60.7616 169.13 61.0173C168.841 61.2086 168.629 61.2591 168.541 61.1576C168.453 61.0562 168.497 60.8109 168.662 60.476C168.868 60.083 169.123 59.7123 169.423 59.3711L171.192 57.3247C171.466 56.9958 171.787 56.6998 172.146 56.4442C172.435 56.2529 172.648 56.2021 172.735 56.3036V56.3036Z" fill="white"/>
<path fill-rule="evenodd" clip-rule="evenodd" d="M173.672 58.6316C173.672 58.7751 173.491 58.9128 173.169 59.0144C172.777 59.1254 172.368 59.1789 171.956 59.1729H169.456C169.044 59.1789 168.635 59.1254 168.243 59.0144C167.921 58.9129 167.74 58.7752 167.74 58.6316C167.74 58.4881 167.921 58.3504 168.243 58.2487C168.635 58.1378 169.044 58.0843 169.456 58.0903H171.957C172.368 58.0843 172.778 58.1379 173.17 58.2487C173.491 58.3503 173.672 58.488 173.672 58.6316H173.672Z" fill="white"/>
<path fill-rule="evenodd" clip-rule="evenodd" d="M207.767 61.1724C207.679 61.2738 207.467 61.2232 207.178 61.0317C206.818 60.7761 206.497 60.4802 206.223 60.1513L204.455 58.1048C204.155 57.7637 203.899 57.3929 203.694 56.9999C203.529 56.665 203.486 56.4195 203.573 56.3184C203.66 56.2168 203.872 56.2673 204.162 56.4588C204.521 56.7144 204.842 57.0104 205.116 57.3394L206.885 59.3858C207.185 59.727 207.44 60.0977 207.645 60.4906C207.811 60.8255 207.854 61.071 207.767 61.1724H207.767Z" fill="white"/>
<path fill-rule="evenodd" clip-rule="evenodd" d="M207.663 56.3044C207.751 56.406 207.707 56.6513 207.541 56.9863C207.336 57.3792 207.081 57.7499 206.781 58.091L205.013 60.1374C204.738 60.4664 204.418 60.7624 204.058 61.0181C203.768 61.2095 203.557 61.26 203.469 61.1585C203.381 61.057 203.425 60.8118 203.59 60.4769C203.795 60.0839 204.051 59.7132 204.351 59.3721L206.119 57.3255C206.393 56.9967 206.714 56.7007 207.074 56.4451C207.363 56.2537 207.575 56.203 207.663 56.3044V56.3044Z" fill="white"/>
<path fill-rule="evenodd" clip-rule="evenodd" d="M208.6 58.6322C208.6 58.7757 208.419 58.9133 208.098 59.0151C207.706 59.126 207.296 59.1796 206.885 59.1736H204.384C203.973 59.1796 203.563 59.1261 203.171 59.0151C202.849 58.9135 202.669 58.776 202.669 58.6322C202.669 58.4886 202.849 58.351 203.171 58.2494C203.563 58.1384 203.973 58.0848 204.384 58.0908H206.885C207.296 58.0848 207.706 58.1384 208.098 58.2494C208.419 58.3509 208.6 58.4885 208.6 58.6322Z" fill="white"/>
<path fill-rule="evenodd" clip-rule="evenodd" d="M198.791 61.1724C198.704 61.2738 198.492 61.2232 198.202 61.0317C197.843 60.7761 197.522 60.4802 197.248 60.1513L195.48 58.1048C195.179 57.7637 194.924 57.3929 194.719 56.9999C194.553 56.665 194.51 56.4195 194.597 56.3184C194.685 56.2168 194.897 56.2673 195.186 56.4588C195.546 56.7144 195.867 57.0105 196.141 57.3394L197.909 59.3858C198.21 59.727 198.465 60.0977 198.67 60.4906C198.835 60.8255 198.879 61.071 198.791 61.1724V61.1724Z" fill="white"/>
<path fill-rule="evenodd" clip-rule="evenodd" d="M198.688 56.3044C198.775 56.406 198.731 56.6513 198.566 56.9863C198.361 57.3792 198.106 57.7499 197.805 58.091L196.037 60.1374C195.763 60.4664 195.442 60.7624 195.082 61.0181C194.793 61.2095 194.581 61.26 194.494 61.1585C194.406 61.057 194.449 60.8118 194.615 60.4769C194.82 60.0839 195.075 59.7132 195.376 59.3721L197.144 57.3255C197.418 56.9967 197.739 56.7007 198.098 56.4451C198.388 56.2537 198.6 56.203 198.688 56.3044V56.3044Z" fill="white"/>
<path fill-rule="evenodd" clip-rule="evenodd" d="M199.625 58.6322C199.625 58.7757 199.444 58.9133 199.122 59.0151C198.73 59.126 198.321 59.1796 197.909 59.1736H195.409C194.997 59.1796 194.588 59.1261 194.196 59.0151C193.874 58.9135 193.693 58.776 193.693 58.6322C193.693 58.4886 193.874 58.351 194.196 58.2494C194.588 58.1384 194.997 58.0848 195.409 58.0908H197.909C198.321 58.0848 198.73 58.1384 199.122 58.2494C199.444 58.3509 199.625 58.4885 199.625 58.6322Z" fill="white"/>
<path fill-rule="evenodd" clip-rule="evenodd" d="M133.364 41.0592C135.108 41.0595 136.795 41.6085 138.127 42.6089C139.459 43.6093 140.349 44.9965 140.64 46.5244C143.296 60.5037 150.345 97.5961 153.407 113.706C153.586 114.647 153.532 115.61 153.248 116.53C152.965 117.449 152.459 118.303 151.767 119.031C151.074 119.759 150.211 120.344 149.237 120.745C148.264 121.147 147.204 121.354 146.131 121.354H80.3929C78.6488 121.354 76.9612 120.805 75.6294 119.805C74.2975 118.804 73.4077 117.417 73.1176 115.889C70.4602 101.91 63.4118 64.8173 60.3495 48.7069C60.1712 47.7669 60.2257 46.8036 60.5092 45.8842C60.7927 44.9648 61.2984 44.1114 61.9911 43.3834C62.6837 42.6554 63.5467 42.0703 64.5199 41.6689C65.4931 41.2675 66.5531 41.0594 67.626 41.0592H133.364Z" fill="#192280"/>
<path fill-rule="evenodd" clip-rule="evenodd" d="M85.7872 115.896C84.043 115.896 82.3551 115.348 81.0231 114.347C79.6911 113.347 78.801 111.959 78.5107 110.431C76.0122 97.281 69.6575 63.841 66.7812 48.7069C66.6024 47.7669 66.6566 46.8036 66.9399 45.8841C67.2232 44.9647 67.7287 44.1111 68.4213 43.3831C69.114 42.655 69.977 42.0699 70.9502 41.6685C71.9234 41.2672 72.9835 41.0592 74.0564 41.0592H134.308C136.053 41.0591 137.74 41.6079 139.073 42.6084C140.405 43.6089 141.295 44.9963 141.585 46.5244C144.085 59.675 150.439 93.1147 153.315 108.249C153.493 109.189 153.439 110.152 153.156 111.072C152.872 111.991 152.367 112.845 151.674 113.573C150.982 114.301 150.119 114.886 149.145 115.287C148.172 115.689 147.112 115.896 146.039 115.896H85.7872Z" fill="#E7E7E7"/>
<path fill-rule="evenodd" clip-rule="evenodd" d="M105.025 52.6014C106.261 52.4613 107.547 52.3128 108.854 52.2357C109.695 52.1863 110.546 52.1565 111.391 52.179C112.776 52.222 114.153 52.3817 115.505 52.656C115.81 52.7039 116.125 52.6426 116.38 52.4853C116.635 52.3281 116.81 52.0877 116.867 51.8164C116.924 51.5452 116.857 51.265 116.683 51.0369C116.508 50.8089 116.239 50.6513 115.934 50.5986C114.473 50.4071 112.955 50.374 111.424 50.3697C110.538 50.3676 109.647 50.3676 108.762 50.3847C107.417 50.4115 106.088 50.4532 104.809 50.5184C104.654 50.5306 104.504 50.5698 104.367 50.6336C104.23 50.6975 104.108 50.7847 104.009 50.8905C103.91 50.9962 103.835 51.1183 103.789 51.2497C103.743 51.3812 103.727 51.5194 103.741 51.6565C103.755 51.7936 103.8 51.9268 103.872 52.0485C103.944 52.1703 104.043 52.2781 104.162 52.3659C104.282 52.4537 104.419 52.5197 104.568 52.5601C104.716 52.6005 104.871 52.6145 105.025 52.6014ZM104.978 60.0909C106.283 60.014 111.467 59.9155 116.594 59.8845C119.439 59.8674 122.265 59.8969 124.414 59.8482C125.271 59.8279 126.023 59.8033 126.63 59.7647C126.941 59.7391 127.228 59.6047 127.427 59.3912C127.626 59.1778 127.722 58.9027 127.693 58.6264C127.664 58.3502 127.513 58.0955 127.273 57.9184C127.033 57.7412 126.723 57.6561 126.412 57.6818C124.566 57.8646 121.312 58.0197 117.873 58.0709C116.14 58.0966 114.362 58.087 112.694 58.0741C109.001 58.0452 105.842 57.9715 104.856 58.0014C104.544 58.0159 104.251 58.1398 104.042 58.346C103.833 58.5521 103.725 58.8236 103.741 59.1007C103.758 59.3778 103.897 59.6378 104.129 59.8235C104.361 60.0092 104.667 60.1054 104.978 60.0909V60.0909ZM105.084 68.6871C109.266 68.6112 113.275 68.5097 117.207 68.3952C119.929 68.3171 122.614 68.2209 125.294 68.1226C129.757 67.9579 134.204 67.774 138.778 67.4457C138.932 67.4337 139.083 67.3947 139.22 67.3309C139.358 67.2671 139.48 67.1798 139.579 67.0739C139.679 66.9681 139.754 66.8458 139.8 66.7142C139.846 66.5825 139.862 66.4441 139.848 66.3068C139.833 66.1695 139.789 66.0361 139.716 65.9143C139.644 65.7924 139.545 65.6845 139.425 65.5968C139.305 65.509 139.167 65.4432 139.019 65.403C138.87 65.3628 138.714 65.3491 138.56 65.3626C134.032 65.784 129.629 66.1176 125.201 66.3154C122.536 66.4341 119.863 66.4993 117.153 66.5432C113.232 66.6074 109.232 66.6019 105.062 66.5955C104.908 66.5968 104.755 66.6251 104.613 66.6788C104.47 66.7326 104.341 66.8107 104.233 66.9087C104.125 67.0067 104.039 67.1227 103.981 67.2501C103.924 67.3774 103.895 67.5137 103.896 67.651C103.897 67.7884 103.929 67.9241 103.99 68.0505C104.05 68.1769 104.138 68.2915 104.249 68.3877C104.359 68.4839 104.489 68.5598 104.633 68.6112C104.776 68.6626 104.929 68.6884 105.084 68.6871V68.6871ZM94.4879 97.348C94.4711 97.3331 94.4615 97.3084 94.4434 97.2891C94.3772 97.2137 94.3207 97.1319 94.2749 97.0453C94.1166 96.7368 93.9987 96.4132 93.9234 96.0808C93.69 95.1516 93.6214 94.1475 93.5539 93.7102L93.1532 90.7231C92.9125 88.7695 92.7362 86.7249 92.336 84.7382C92.0762 83.363 91.6564 82.0156 91.0832 80.7175C90.1023 78.566 88.5858 77.9832 87.1754 78.1703C85.9105 78.3383 84.5552 79.2739 83.5491 80.6897C83.3156 81.018 83.0953 81.3538 82.8836 81.6938C82.5754 82.19 82.2859 82.6957 81.999 83.2026C81.5092 84.0688 81.0338 84.9413 80.6016 85.831C80.3097 86.4341 80.0361 87.0447 79.7904 87.6649C79.6915 87.9261 79.7127 88.2115 79.8494 88.459C79.9861 88.7065 80.2272 88.896 80.5203 88.9863C80.8135 89.0766 81.1349 89.0605 81.4147 88.9414C81.6944 88.8223 81.91 88.6099 82.0144 88.3503C82.2924 87.6284 82.6114 86.9207 82.9545 86.2223C83.3046 85.5113 83.6802 84.8109 84.0653 84.1147C84.3337 83.6304 84.6044 83.147 84.8933 82.6723C85.0811 82.3643 85.2761 82.0606 85.4831 81.7633C86.0716 80.9196 86.7673 80.2502 87.517 80.1443C88.1343 80.0579 88.5954 80.5261 89.0334 81.4649C89.5609 82.6331 89.9502 83.8469 90.1949 85.0867C90.6052 87.0275 90.7881 89.0263 91.0397 90.9348L91.4694 93.9707C91.574 94.6197 91.7148 96.4011 92.2672 97.5838C92.6801 98.4661 93.3432 99.0457 94.1459 99.1717C94.9897 99.3044 95.8538 98.9109 96.5494 98.1025C97.44 97.0663 98.1225 95.3105 98.4005 94.7374C99.5667 92.3334 100.496 89.8344 101.578 87.3975C102.03 86.3753 102.513 85.3658 103.051 84.3767C103.353 83.8209 103.733 83.0155 104.276 82.407C104.524 82.1301 104.796 81.8831 105.152 81.8221C105.615 81.7419 105.996 82.0211 106.388 82.3461C107.109 82.9427 107.771 83.8014 108.435 84.5275C109.083 85.2333 109.749 85.8182 110.42 86.1068C111.092 86.3896 111.835 86.5155 112.578 86.4726C113.733 86.4265 114.941 86.0331 116.12 85.7241C117.019 85.4894 117.892 85.2671 118.68 85.5893C119.347 85.863 119.755 86.4694 120.11 87.1377C120.793 88.423 121.209 89.9693 121.81 90.9733C122.767 92.5698 124.105 93.452 125.626 93.8872C127.729 94.4903 130.242 94.1748 132.62 93.6263C132.769 93.5911 132.91 93.53 133.033 93.4467C133.155 93.3633 133.259 93.2592 133.336 93.1404C133.414 93.0216 133.464 92.8904 133.485 92.7542C133.505 92.6181 133.496 92.4797 133.456 92.3469C133.416 92.2141 133.347 92.0896 133.254 91.9804C133.16 91.8712 133.043 91.7796 132.909 91.7106C132.775 91.6416 132.628 91.5968 132.474 91.5785C132.321 91.5603 132.165 91.569 132.016 91.6043C130.397 91.9923 128.704 92.295 127.178 92.1121C125.815 91.9496 124.608 91.3647 123.786 90.0269C123.075 88.8689 122.605 86.9783 121.681 85.6192C121.139 84.8236 120.457 84.1875 119.58 83.8356C118.886 83.5668 118.125 83.4654 117.374 83.5416C116.257 83.6346 115.071 84.0479 113.899 84.3489C113.014 84.5756 112.138 84.7649 111.327 84.4237C110.68 84.1501 110.098 83.4234 109.465 82.7086C108.691 81.836 107.883 80.9549 107.019 80.4673C106.309 80.0652 105.555 79.893 104.756 80.035C104.103 80.1636 103.509 80.4656 103.053 80.9012C102.225 81.6497 101.64 82.8142 101.22 83.5935C100.664 84.6221 100.167 85.6743 99.6957 86.7373C98.6209 89.156 97.6845 91.6316 96.5208 94.014C96.3305 94.4032 95.9478 95.3923 95.4267 96.2617C95.2501 96.5726 95.0336 96.8643 94.7816 97.131C94.6919 97.2117 94.5935 97.2844 94.4879 97.348ZM83.4877 105.443C86.3136 105.419 89.1394 105.362 91.9653 105.296C97.6075 105.165 103.249 104.944 108.892 104.756C114.529 104.569 120.165 104.428 125.796 104.286C125.952 104.282 126.105 104.251 126.247 104.194C126.389 104.137 126.517 104.056 126.623 103.955C126.729 103.854 126.812 103.736 126.867 103.606C126.921 103.477 126.946 103.339 126.94 103.201C126.934 103.062 126.898 102.927 126.832 102.801C126.767 102.676 126.674 102.563 126.56 102.47C126.445 102.376 126.311 102.304 126.164 102.257C126.018 102.21 125.863 102.189 125.707 102.195C120.642 102.41 115.574 102.676 110.5 102.88C107.124 103.017 103.746 103.127 100.366 103.211C94.74 103.35 89.114 103.397 83.4883 103.351C83.1761 103.351 82.8767 103.462 82.656 103.658C82.4352 103.854 82.3112 104.12 82.3112 104.397C82.3112 104.675 82.4352 104.941 82.656 105.137C82.8767 105.333 83.1761 105.443 83.4883 105.443H83.4877ZM84.2938 110.456C85.6405 110.469 86.9884 110.413 88.3424 110.358C89.2295 110.321 90.1176 110.275 91.007 110.252C92.4766 110.215 93.9437 110.227 95.4024 110.241C95.7125 110.232 96.0059 110.114 96.2188 109.913C96.4317 109.713 96.5467 109.445 96.5389 109.17C96.5312 108.894 96.4011 108.632 96.1772 108.441C95.9533 108.251 95.6536 108.146 95.3433 108.15C94.2374 108.214 93.1332 108.309 92.0192 108.378C91.2887 108.423 90.5557 108.466 89.823 108.485C88.0139 108.528 86.2034 108.489 84.3988 108.366C84.244 108.36 84.0891 108.38 83.9432 108.427C83.7972 108.473 83.663 108.545 83.5484 108.638C83.4337 108.73 83.3408 108.842 83.2749 108.967C83.2091 109.092 83.1716 109.227 83.1647 109.364C83.1578 109.502 83.1816 109.64 83.2347 109.769C83.2878 109.898 83.3691 110.017 83.4741 110.119C83.579 110.22 83.7055 110.302 83.8462 110.36C83.9869 110.418 84.1391 110.45 84.294 110.456L84.2938 110.456Z" fill="white"/>
<path fill-rule="evenodd" clip-rule="evenodd" d="M95.7246 67.4019C95.9598 67.3371 96.166 67.2081 96.314 67.0332C96.462 66.8583 96.5442 66.6465 96.549 66.4277C98.2099 64.2626 99.2066 61.7501 99.4406 59.1381C99.7306 55.9387 98.8629 52.673 96.699 49.9655C94.9406 47.7585 91.9246 46.1864 89.1347 46.2262C87.3511 46.2509 85.635 46.8956 84.3244 48.4193C83.4319 48.7451 82.6304 49.2404 81.9762 49.8704C80.609 51.1343 79.5535 52.9115 78.9253 54.1006C77.161 57.4326 76.4364 61.9109 77.7904 65.512C78.7356 68.0269 80.6607 70.1334 83.9079 71.1985C84.4945 71.3919 85.103 71.5279 85.7228 71.6038C86.3415 71.6809 86.9677 71.6988 87.5907 71.6573C89.1267 71.5372 90.6097 71.0992 91.921 70.3783C93.1853 69.6899 94.3248 68.8351 95.3005 67.843C95.4455 67.698 95.5874 67.5516 95.7246 67.4019ZM93.9501 66.4791C93.6709 66.1529 93.3977 65.8245 93.1268 65.4931C92.1364 64.2784 91.1916 63.039 90.1939 61.8222C89.8827 61.4214 89.5442 61.0378 89.1805 60.6736C88.8965 60.4073 88.5883 60.1614 88.2177 60.0808C87.9638 60.0273 87.729 60.1781 87.4949 60.3172C87.1044 60.5685 86.7385 60.8485 86.4009 61.1544C85.3839 62.0189 84.3779 62.9562 83.4186 63.9303C82.4991 64.8649 81.6265 65.8359 80.8214 66.8057C81.7337 68.0381 83.0695 68.9757 84.63 69.479C85.0761 69.6289 85.5395 69.7347 86.0117 69.7944C86.4847 69.8549 86.9636 69.8699 87.4402 69.8394C88.6595 69.7447 89.8369 69.3971 90.8775 68.8246C91.9655 68.2343 92.946 67.5002 93.7852 66.6475C93.8411 66.5923 93.8964 66.5356 93.9501 66.4791ZM95.345 64.7414C96.5083 62.9908 97.1999 61.0247 97.3656 58.997C97.5919 56.2339 96.8205 53.4174 94.9249 51.0969C93.7925 49.7153 92.0316 48.6393 90.248 48.3369C89.1107 48.1434 87.9674 48.2999 87.0141 48.9443C87.0385 49.0278 87.0506 49.1137 87.0503 49.2C87.0504 49.2671 87.0431 49.334 87.0286 49.3999L87.5125 50.929C87.7856 52.0027 88.0035 53.0751 88.2429 54.1412C88.403 54.8575 88.5765 55.5689 88.7327 56.2863C88.8916 57.0123 89.0458 57.7395 89.1817 58.4752C89.61 58.6454 90.004 58.8769 90.3479 59.1606C90.9305 59.6258 91.4311 60.2278 91.85 60.7079C92.749 61.7248 93.607 62.7621 94.4929 63.7811C94.7737 64.1031 95.0579 64.4232 95.3455 64.7414H95.345ZM85.0788 50.5933C84.9256 50.6193 84.768 50.6175 84.6156 50.5879C84.2582 50.7913 83.9297 51.0322 83.6371 51.3054C82.436 52.3908 81.5213 53.937 80.9629 54.9636C79.6485 57.3791 78.9313 60.493 79.3922 63.2956C79.469 63.7668 79.5834 64.2326 79.7346 64.6893C80.3905 63.9911 81.079 63.2982 81.7879 62.6234C82.824 61.6354 83.9007 60.6837 84.9916 59.809C85.4718 59.4176 86.1325 58.8766 86.8402 58.5616C86.729 57.3897 86.604 56.2327 86.3768 55.0865C86.1314 53.846 85.7702 52.6258 85.4056 51.392C85.3129 51.1208 85.204 50.8542 85.0794 50.5933H85.0788Z" fill="#737CE3"/>
<path fill-rule="evenodd" clip-rule="evenodd" d="M225.352 182.018C227.09 178.857 234.683 188.502 231.781 190.898C227.778 194.205 205 202.341 201.33 201.856C197.66 201.371 205.758 191.29 209.762 187.984C213.765 184.677 220.504 190.834 225.352 182.018Z" fill="#1A2283"/>
<path fill-rule="evenodd" clip-rule="evenodd" d="M234.747 182.76C233.512 183.539 231.1 187.764 228.319 189.247C223.642 191.744 212.132 196.384 206.682 197.741C203.131 198.626 197.34 196.973 195.623 197.395C194.554 197.657 195.278 200.139 196.377 200.275C198.346 200.517 203.911 199.915 207.44 198.852C212.798 197.238 223.808 192.971 228.523 190.592C231.391 189.145 234.693 185.878 235.731 184.572C236.166 184.025 235.362 182.372 234.747 182.76Z" fill="white"/>
<path fill-rule="evenodd" clip-rule="evenodd" d="M156.741 167.18C160.166 165.415 160.427 177.183 156.514 177.737C151.116 178.503 127.098 173.991 124.354 171.772C121.609 169.553 134.654 165.187 140.052 164.421C145.45 163.656 147.188 172.104 156.741 167.18Z" fill="#1A2283"/>
<path fill-rule="evenodd" clip-rule="evenodd" d="M164.079 172.445C162.564 172.481 157.913 174.797 154.674 174.653C149.224 174.413 136.757 172.571 131.378 171.002C127.874 169.98 124.101 165.741 122.41 165.242C121.358 164.931 120.403 167.351 121.231 168.007C122.715 169.183 127.714 171.437 131.311 172.3C136.773 173.611 148.593 175.514 154 175.87C157.289 176.088 162.08 175.008 163.76 174.438C164.465 174.198 164.833 172.427 164.079 172.445Z" fill="white"/>
<path fill-rule="evenodd" clip-rule="evenodd" d="M193.656 131.126C178.283 137.666 164.001 129.309 158.176 138.481C152.45 147.496 172.727 166.842 155.933 169.699C147.908 171.063 134.316 164.935 132.833 157.455C131.35 149.976 136.893 131.551 147.029 124.823C157.166 118.095 180.246 115.039 193.655 117.087C207.68 119.229 208.465 124.828 193.656 131.126Z" fill="#69BAC9"/>
<path fill-rule="evenodd" clip-rule="evenodd" d="M176.879 113.395C177.094 113.503 177.196 113.735 177.278 113.971C177.406 114.359 177.476 114.761 177.488 115.165C177.55 117.344 176.825 119.484 175.419 121.27C174.514 122.406 173.274 123.106 171.883 123.539C169.653 124.234 167.074 124.285 164.828 124.369C162.863 124.415 160.907 124.625 158.986 124.998C157.059 125.389 155.196 125.99 153.504 126.929C151.232 128.149 149.76 129.819 148.669 131.71C146.215 135.963 145.82 141.429 143.086 145.578C142.519 146.44 141.898 147.273 141.224 148.072C140.56 148.858 139.819 149.589 139.01 150.258C136.834 152.047 134.461 153.438 132.466 155.255C131.543 156.087 130.735 157.012 130.057 158.012C129.905 158.254 129.868 158.54 129.953 158.807C130.038 159.074 130.239 159.3 130.512 159.435C130.784 159.57 131.106 159.603 131.406 159.528C131.707 159.452 131.961 159.273 132.113 159.031C132.832 157.834 133.747 156.738 134.828 155.779C136.511 154.243 138.429 152.926 140.18 151.322C141.01 150.556 141.763 149.727 142.433 148.845C143.091 147.978 143.695 147.079 144.242 146.153C146.816 141.875 146.922 136.323 149.278 131.979C150.265 130.159 151.672 128.568 153.819 127.387C155.464 126.531 157.262 125.932 159.135 125.617C161.01 125.284 162.946 125.181 164.843 125.182C167.199 125.197 169.892 125.226 172.269 124.616C173.967 124.18 175.498 123.416 176.679 122.119C177.556 121.14 178.252 120.043 178.742 118.87C179.245 117.689 179.534 116.444 179.6 115.182C179.639 114.477 179.544 113.771 179.319 113.093C179.117 112.49 178.688 111.966 178.105 111.609C177.973 111.537 177.827 111.49 177.674 111.468C177.521 111.447 177.365 111.453 177.215 111.485C177.065 111.517 176.923 111.576 176.798 111.657C176.673 111.738 176.567 111.84 176.487 111.957C176.406 112.074 176.353 112.204 176.329 112.34C176.305 112.476 176.311 112.614 176.348 112.748C176.384 112.881 176.45 113.007 176.541 113.118C176.632 113.229 176.747 113.323 176.879 113.395H176.879ZM166.581 138.676C165.711 138.159 164.676 137.904 163.629 137.951C162.282 138.011 160.914 138.49 159.777 139.135C157.884 140.212 156.22 141.577 154.862 143.168C153.459 144.812 152.411 146.666 152.178 148.551C151.985 149.894 152.161 151.236 152.512 152.557C153.03 154.495 153.953 156.391 154.924 158.112C155.345 158.884 156.108 159.85 156.538 160.833C156.793 161.416 156.926 162.002 156.721 162.544C156.083 164.197 154.433 165.237 152.7 166.238C150.78 167.346 148.774 168.409 147.531 169.928C146.787 170.835 146.345 171.908 146.255 173.027C146.249 173.164 146.273 173.301 146.327 173.43C146.38 173.559 146.462 173.678 146.567 173.779C146.671 173.879 146.798 173.961 146.938 174.019C147.078 174.076 147.23 174.109 147.385 174.114C147.697 174.125 148.001 174.026 148.23 173.837C148.46 173.649 148.596 173.388 148.608 173.111C148.603 171.814 149.206 170.824 150.09 169.974C152.598 167.559 156.839 166.024 157.781 162.83C157.946 162.23 157.904 161.601 157.661 161.024C157.218 159.861 156.178 158.7 155.614 157.794C154.617 156.139 153.601 154.325 153.1 152.434C152.756 151.194 152.688 149.905 152.899 148.641C153.236 146.911 154.305 145.233 155.732 143.803C157.116 142.431 158.773 141.298 160.619 140.459C161.404 140.096 162.262 139.873 163.143 139.803C163.881 139.746 164.615 139.947 165.188 140.364C165.312 140.445 165.454 140.504 165.604 140.536C165.754 140.569 165.91 140.575 166.063 140.555C166.216 140.534 166.362 140.486 166.495 140.415C166.627 140.344 166.742 140.25 166.834 140.14C166.925 140.029 166.991 139.903 167.028 139.77C167.065 139.637 167.072 139.498 167.048 139.362C167.025 139.226 166.972 139.096 166.892 138.979C166.811 138.861 166.706 138.759 166.581 138.677V138.676Z" fill="white"/>
<path fill-rule="evenodd" clip-rule="evenodd" d="M197.807 121.706C182.055 136.29 164.15 127.845 157.324 137.055C154.286 141.156 158.914 150.658 164.428 150.359C173.209 149.883 204.449 138.973 210.012 134.197C214.476 130.366 201.159 118.602 197.807 121.706Z" fill="black" fill-opacity="0.2"/>
<path fill-rule="evenodd" clip-rule="evenodd" d="M211.459 123.543C201.476 146.875 214.908 157.63 217.191 160.399C225.371 170.318 239.004 174.542 230.496 183.307C225.16 188.804 210.721 190.754 203.741 185.756C196.721 180.731 189.953 164.465 188.379 153.155C186.805 141.846 190.665 129.55 194.296 117.9C197.074 108.985 217.293 109.909 211.459 123.543Z" fill="#69BAC9"/>
<path fill-rule="evenodd" clip-rule="evenodd" d="M216.504 112.672C215.076 113.075 213.674 113.948 212.39 115.038C210.674 116.493 209.148 118.308 207.98 119.606C203.963 124.032 199.777 130.088 197.962 136.32C196.726 140.562 196.57 144.888 198.375 148.864C198.747 149.697 199.333 150.585 200.145 151.069C200.447 151.257 200.793 151.381 201.156 151.434C201.519 151.486 201.891 151.465 202.244 151.372C203.056 151.177 204.423 150.356 205.568 150.121C206.246 149.982 206.832 150.087 207.061 150.84C208.667 156.283 207.154 162.435 208.215 168.029C208.681 170.492 209.636 172.85 211.53 175.008C212.68 176.318 214.15 177.127 215.784 177.683C219.239 178.859 223.485 178.789 226.726 180.233C228.232 180.904 229.335 181.882 230.242 183.005C231.705 184.816 232.653 187.003 233.794 189.026C233.866 189.147 233.965 189.255 234.083 189.343C234.202 189.431 234.339 189.497 234.487 189.538C234.635 189.578 234.79 189.593 234.944 189.58C235.098 189.568 235.247 189.528 235.384 189.464C235.521 189.4 235.642 189.313 235.741 189.207C235.84 189.102 235.914 188.98 235.96 188.849C236.006 188.718 236.022 188.58 236.008 188.443C235.994 188.306 235.95 188.173 235.878 188.052C234.595 185.986 233.485 183.753 231.88 181.917C230.737 180.611 229.362 179.492 227.526 178.748C224.164 177.383 219.843 177.573 216.276 176.481C214.853 176.046 213.557 175.394 212.528 174.294C210.693 172.33 209.731 170.153 209.228 167.865C208.005 162.295 209.393 156.109 207.656 150.695C207.388 149.832 206.808 149.535 206.104 149.525C204.85 149.509 203.066 150.618 202.087 150.853C201.818 150.923 201.535 150.938 201.258 150.897C200.982 150.856 200.72 150.76 200.491 150.617C199.781 150.186 199.294 149.39 198.978 148.655C197.336 144.785 197.564 140.607 198.9 136.55C200.879 130.537 205.269 124.807 209.368 120.641C210.555 119.445 212.105 117.763 213.825 116.441C214.887 115.624 216.014 114.95 217.161 114.68C217.457 114.601 217.707 114.421 217.855 114.178C218.003 113.936 218.037 113.652 217.951 113.387C217.864 113.123 217.664 112.899 217.393 112.765C217.122 112.632 216.802 112.598 216.503 112.672H216.504ZM191.435 166.051C191.379 165.109 191.706 164.01 192.263 163.006C192.847 161.952 193.646 160.991 194.511 160.407C194.975 160.077 195.529 159.861 196.117 159.781C196.387 159.743 196.663 159.756 196.926 159.821C197.19 159.885 197.434 160 197.644 160.155C198.096 160.53 198.435 160.998 198.632 161.519C198.999 162.391 199.151 163.38 199.302 164.186C199.518 165.399 199.655 166.638 199.778 167.882C199.901 169.134 200.022 170.387 200.233 171.621C200.4 172.699 200.674 173.761 201.051 174.795C201.537 176.141 202.416 177.349 203.599 178.295C206.103 180.346 209.662 181.155 212.215 183.544C212.934 184.245 213.461 185.083 213.754 185.995C214.249 187.413 214.301 188.971 214.274 190.44C214.285 190.715 214.418 190.976 214.643 191.165C214.869 191.354 215.17 191.456 215.48 191.449C215.79 191.443 216.085 191.327 216.3 191.129C216.515 190.93 216.633 190.664 216.628 190.389C216.504 188.73 216.259 186.985 215.557 185.427C215.067 184.337 214.379 183.331 213.362 182.509C210.582 180.234 206.891 179.631 204.207 177.674C203.081 176.861 202.222 175.794 201.72 174.584C201.189 173.261 200.836 171.887 200.667 170.49C200.387 168.361 200.396 166.186 200.111 164.089C200.009 163.229 199.904 162.179 199.586 161.234C199.38 160.549 198.987 159.919 198.442 159.401C197.762 158.787 196.897 158.571 196.017 158.596C195.171 158.638 194.352 158.875 193.64 159.283C192.523 159.901 191.43 160.97 190.584 162.177C189.712 163.42 189.154 164.819 189.081 166.051C189.081 166.328 189.205 166.594 189.426 166.79C189.647 166.987 189.946 167.097 190.258 167.097C190.57 167.097 190.87 166.987 191.09 166.79C191.311 166.594 191.435 166.328 191.435 166.051L191.435 166.051Z" fill="white"/>
<path fill-rule="evenodd" clip-rule="evenodd" d="M218.833 155.722C218.021 156.181 217.413 156.939 217.099 157.926C216.571 159.585 216.699 161.798 216.895 162.957C216.982 163.543 217.102 164.125 217.257 164.7C217.409 165.28 217.616 165.848 217.878 166.397C218.477 167.703 219.293 168.598 220.231 169.249C220.942 169.734 221.742 170.106 222.596 170.349C226.833 171.611 232.869 170.127 236.646 172.74C236.902 172.895 237.217 172.954 237.522 172.903C237.827 172.853 238.097 172.698 238.274 172.471C238.451 172.245 238.52 171.966 238.466 171.694C238.413 171.423 238.241 171.181 237.988 171.022C236.541 170.251 234.933 169.912 233.223 169.818C229.747 169.627 225.888 170.469 222.791 169.76C221.995 169.591 221.248 169.274 220.599 168.832C219.749 168.237 219.079 167.361 218.594 166.154C218.402 165.63 218.265 165.091 218.185 164.544C218.105 163.992 218.062 163.436 218.057 162.879C218.055 161.981 218.175 160.391 218.678 159.077C218.942 158.39 219.32 157.8 219.919 157.579C220.196 157.452 220.405 157.231 220.499 156.966C220.593 156.702 220.565 156.415 220.422 156.168C220.278 155.922 220.029 155.737 219.732 155.653C219.434 155.569 219.111 155.594 218.834 155.722H218.833Z" fill="white"/>
<path fill-rule="evenodd" clip-rule="evenodd" d="M206.855 90.0619C200.355 88.7054 194.181 103.757 187.659 103.993C181.137 104.229 170.64 94.184 167.724 91.4776C166.493 90.3329 164.584 89.2292 163.691 88.9861C161.392 88.3595 157.576 88.1642 157.312 89.264C157.137 89.9927 161.101 89.4452 160.888 90.532C160.345 93.2931 161.919 93.9963 164.901 94.17C167.995 100.007 181.379 113.282 188.926 114.127C196.473 114.971 208.291 103.269 210.178 99.2395C212.23 94.8604 210.377 90.7961 206.855 90.0619Z" fill="#D6AEAE"/>
<path fill-rule="evenodd" clip-rule="evenodd" d="M207.694 104.907C205.456 105.241 203.761 102.838 201.709 101.949C197.332 100.055 196.249 105.778 191.438 99.1597C189.984 97.1581 192.627 89.5873 195.723 87.4169C198.819 85.2465 206.782 84.0454 210.016 86.1335C213.25 88.2217 215.518 96.8149 215.13 99.9439C214.792 102.682 209.931 104.573 207.694 104.907Z" fill="#1A2283"/>
<path fill-rule="evenodd" clip-rule="evenodd" d="M204.667 96.0889C202.983 97.2766 201.717 104.66 197.788 106.87C192.986 109.572 178.432 109.937 175.855 112.3C173.277 114.663 178.394 120.97 182.319 121.05C187.456 121.153 202.409 116.471 206.671 112.919C210.289 109.904 208.223 102.545 207.888 99.7393C207.705 98.2023 206.03 95.1261 204.667 96.0889Z" fill="black" fill-opacity="0.2"/>
<path fill-rule="evenodd" clip-rule="evenodd" d="M214.369 117.981C215.326 122.853 193.369 125.708 189.454 121.084C183.358 113.887 201.315 110.102 202.34 93.2776C202.707 87.2669 221.149 87.7465 216.649 94.5637C214.122 98.394 211.621 103.996 214.369 117.981Z" fill="#1A2283"/>
<path fill-rule="evenodd" clip-rule="evenodd" d="M211.765 99.2357C209.458 98.4206 213.788 108.518 210.532 111.365C206.574 114.825 188.554 117.086 188.018 119.999C187.481 122.912 201.25 129.466 207.309 128.842C213.368 128.218 223.63 121.184 224.373 116.249C225.115 111.315 214.072 100.05 211.765 99.2357Z" fill="black" fill-opacity="0.2"/>
<path fill-rule="evenodd" clip-rule="evenodd" d="M210.394 137.551C213.862 140.187 218.661 140.259 221.116 137.711L221.117 137.709C223.571 135.162 222.75 130.959 219.282 128.322L154.057 78.7294C152.73 77.7205 151.197 76.9471 149.542 76.4514C146.612 75.5738 141.702 74.1021 138.063 73.0118C137.706 72.905 137.322 72.8975 136.961 72.9903C136.599 73.083 136.278 73.2717 136.041 73.5309C135.804 73.7901 135.661 74.1076 135.632 74.4408C135.604 74.774 135.69 75.107 135.881 75.3953C137.848 78.3773 140.5 82.3989 141.999 84.6721C142.767 85.8364 143.748 86.8787 144.902 87.7559L210.394 137.551Z" fill="#737CE3"/>
<path fill-rule="evenodd" clip-rule="evenodd" d="M136.58 78.455C149.354 89.2433 156.466 94.6968 171.443 102.449C193.877 114.061 202.714 130.209 210.922 134.035C214.988 135.93 227.295 137.084 220.688 125.402C218.53 121.586 240.948 141.299 236.953 145.056C232.959 148.814 208.854 153.116 196.723 147.948C179.834 140.754 145.651 113.475 135.628 101.893C130.264 95.6956 132.978 75.4128 136.58 78.455Z" fill="black" fill-opacity="0.2"/>
<path fill-rule="evenodd" clip-rule="evenodd" d="M212.487 133.773C212.938 134.116 213.524 134.286 214.116 134.245C214.708 134.204 215.258 133.956 215.644 133.555L217.098 132.046C217.099 132.045 217.098 132.044 217.099 132.043C217.098 132.041 217.097 132.04 217.096 132.039L200.162 119.164C200.107 119.122 200.044 119.09 199.975 119.071C199.906 119.051 199.834 119.043 199.762 119.048C199.69 119.053 199.62 119.07 199.555 119.099C199.491 119.128 199.433 119.169 199.386 119.217L198.287 120.358C197.901 120.759 197.711 121.28 197.757 121.806C197.803 122.332 198.082 122.821 198.534 123.164L212.487 133.773Z" fill="white"/>
<path fill-rule="evenodd" clip-rule="evenodd" d="M212.489 91.0319C207.108 94.5435 215.984 108.488 211.952 113.048C207.92 117.609 192.16 116.893 188.297 118.393C187.683 118.631 185.763 115.5 184.902 115.175C183.643 114.699 183.677 116.237 184.507 117.692C184.886 118.357 181.222 114.836 181.02 115.524C180.534 117.175 183.201 121.38 188.768 122.049C199.717 123.364 215.827 123.323 221.45 118.771C227.073 114.219 224.729 98.6353 222.504 94.7443C220.087 90.515 215.405 89.1279 212.489 91.0319Z" fill="#D6AEAE"/>
<path fill-rule="evenodd" clip-rule="evenodd" d="M225.742 100.102C224.576 101.831 221.418 101.416 219.325 102.226C214.862 103.954 219.058 108.402 210.269 107.356C207.611 107.039 202.846 100.338 202.999 96.8365C203.152 93.3356 207.292 87.1742 211.18 86.3445C215.067 85.5148 223.896 89.5614 226.323 91.8549C228.447 93.8612 226.909 98.3741 225.742 100.102Z" fill="#1A2283"/>
<path fill-rule="evenodd" clip-rule="evenodd" d="M217.178 82.2289C216.995 83.902 215.691 88.1224 212.789 88.2927C209.808 88.4676 208.988 84.1256 209.172 82.4521C209.357 80.7787 212.561 78.2887 213.896 78.2511C215.23 78.2134 217.359 80.5922 217.178 82.2289Z" fill="#D6AEAE"/>
<path fill-rule="evenodd" clip-rule="evenodd" d="M209.643 85.7236C209.836 85.5825 210.674 86.578 211.163 86.6015C211.652 86.6249 212.093 85.8198 212.575 85.8648C213.056 85.9097 213.487 87.0527 214.048 86.8651C214.609 86.6775 215.662 85.5413 215.944 84.7409C216.225 83.9405 216.034 82.5426 215.733 82.0677C215.469 81.6528 214.638 81.7245 214.134 81.8912C212.489 82.4398 210.223 82.2816 209.329 81.719C208.435 81.1565 207.57 80.4294 208.773 78.5132C209.188 77.8535 211.564 76.1746 212.086 77.4814C213.136 80.1129 213.362 76.1201 216.818 79.1249C217.65 79.8466 217.426 81.2615 217.359 82.3082C217.291 83.355 217.019 84.4832 216.41 85.4061C215.734 86.4338 215.514 87.1722 213.296 88.4761C212.35 89.0311 208.169 89.5219 210.011 87.4463C210.328 87.0913 209.452 85.8637 209.643 85.7236Z" fill="black"/>
</svg>
