<svg width="79" height="71" viewBox="0 0 79 71" fill="none" xmlns="http://www.w3.org/2000/svg">
<path d="M61.5645 1.04004H17.4355C16.8277 1.04 16.2257 1.14759 15.6641 1.35664C15.1025 1.5657 14.5922 1.87213 14.1623 2.25844C13.7325 2.64476 13.3915 3.10338 13.1589 3.60813C12.9263 4.11288 12.8066 4.65387 12.8066 5.2002V65.7998C12.8066 66.3461 12.9263 66.8871 13.1589 67.3919C13.3915 67.8966 13.7325 68.3552 14.1623 68.7416C14.5922 69.1279 15.1025 69.4343 15.6641 69.6434C16.2257 69.8524 16.8277 69.96 17.4355 69.96H61.5645C62.1723 69.96 62.7743 69.8524 63.3359 69.6434C63.8975 69.4343 64.4078 69.1279 64.8377 68.7416C65.2675 68.3552 65.6085 67.8966 65.8411 67.3919C66.0737 66.8871 66.1934 66.3461 66.1934 65.7998V5.2002C66.1934 4.65387 66.0737 4.11288 65.8411 3.60813C65.6085 3.10338 65.2675 2.64476 64.8377 2.25844C64.4078 1.87213 63.8975 1.5657 63.3359 1.35664C62.7743 1.14759 62.1723 1.04 61.5645 1.04004V1.04004ZM25.2106 21.1613C25.3576 21.1264 25.5108 21.1178 25.6615 21.1361C25.8122 21.1544 25.9574 21.1992 26.0888 21.268C26.2202 21.3368 26.3353 21.4281 26.4273 21.5369C26.5194 21.6457 26.5868 21.7697 26.6255 21.9018C26.6537 21.9972 26.6661 22.0958 26.6625 22.1944C26.6559 22.4194 26.5682 22.6363 26.4127 22.8126C26.2572 22.9889 26.0421 23.115 25.8 23.1721C25.3477 23.2789 24.9026 23.409 24.4669 23.5617C24.2283 23.2676 24.0642 22.9301 23.9861 22.5729C23.908 22.2158 23.9178 21.8475 24.0148 21.4941C24.4067 21.3679 24.8053 21.257 25.2106 21.1613Z" fill="#FDD402"/>
<path d="M15.8926 65.7998V5.2002C15.8926 4.09685 16.3803 3.0387 17.2484 2.25852C18.1164 1.47834 19.2938 1.04004 20.5215 1.04004H17.4355C16.2079 1.04004 15.0305 1.47834 14.1624 2.25852C13.2943 3.0387 12.8066 4.09685 12.8066 5.2002V65.7998C12.8066 66.3461 12.9264 66.8871 13.159 67.3918C13.3916 67.8966 13.7326 68.3552 14.1624 68.7415C14.5922 69.1278 15.1025 69.4342 15.6641 69.6433C16.2257 69.8524 16.8277 69.96 17.4355 69.96H20.5215C19.9136 69.96 19.3117 69.8524 18.7501 69.6433C18.1885 69.4342 17.6782 69.1278 17.2483 68.7415C16.8185 68.3552 16.4776 67.8966 16.2449 67.3918C16.0123 66.8871 15.8926 66.3461 15.8926 65.7998V65.7998Z" fill="#FBBF13"/>
<path d="M18.0527 5.75488V65.2451H60.9473V5.75488H18.0527ZM25.2106 21.1613C25.3576 21.1264 25.5108 21.1178 25.6615 21.1361C25.8122 21.1544 25.9574 21.1992 26.0888 21.268C26.2202 21.3368 26.3353 21.4281 26.4273 21.5369C26.5194 21.6457 26.5868 21.7697 26.6255 21.9018C26.6537 21.9972 26.6661 22.0958 26.6625 22.1944C26.6559 22.4194 26.5682 22.6363 26.4127 22.8126C26.2572 22.9889 26.0421 23.115 25.8 23.1721C25.3477 23.2789 24.9026 23.409 24.4669 23.5617C24.2283 23.2676 24.0642 22.9301 23.9861 22.5729C23.908 22.2158 23.9178 21.8475 24.0148 21.4941C24.4067 21.3679 24.8053 21.257 25.2106 21.1613Z" fill="white"/>
<path d="M46.735 5.75488C46.5977 6.08492 46.2598 6.95162 46.232 7.01957C45.0069 10.0024 42.4949 12.2669 39.534 13.9476C39.02 14.2575 38.4668 14.5112 37.8861 14.7034C37.777 14.7362 37.6632 14.7544 37.5482 14.7575C37.3006 14.7633 37.0574 14.6977 36.8544 14.5701C36.6513 14.4426 36.4992 14.2599 36.4203 14.0488C36.0901 13.1641 37.0066 12.805 37.7164 12.4638C40.5076 11.1229 42.8297 8.99842 44.024 6.34285C44.0734 6.23607 44.2493 5.9199 44.3326 5.75488H46.735Z" fill="#E0E0E2"/>
<path d="M45.5114 5.75488C45.5115 5.90481 45.4752 6.05296 45.4049 6.18893C45.2737 6.44686 45.1488 6.70201 45.0253 6.95578C44.4282 8.18719 43.811 9.4602 42.4794 10.6542C41.3253 11.6887 38.2964 13.8464 36.5189 14.3359C36.4089 14.366 36.2945 14.3814 36.1795 14.3817C35.9317 14.3814 35.6906 14.3097 35.4914 14.1772C35.2923 14.0447 35.1457 13.8583 35.0732 13.6454C34.7689 12.7533 35.6971 12.4159 36.4155 12.0928C39.2462 10.8199 41.6313 8.7511 42.9037 6.12514C42.9639 6.00173 43.0241 5.87831 43.0843 5.75489L45.5114 5.75488Z" fill="#E5303E"/>
<path d="M26.1549 23.8363C25.8262 23.9403 25.5047 24.0564 25.1905 24.1844C24.2385 24.5703 23.3464 25.0658 22.5366 25.6585C21.3467 26.5332 20.3515 27.6022 19.6034 28.8091C19.2161 29.4343 18.6923 29.9828 18.0635 30.4219L18.0527 30.4288V26.7803C18.7039 26.0939 19.2902 25.5434 19.7515 25.1329C20.486 24.4798 20.9443 24.1428 21.0754 24.0471C21.9595 23.3991 22.9266 22.8483 23.9561 22.4066C24.0144 22.8244 24.1902 23.222 24.4669 23.5618C24.9026 23.4091 25.3477 23.279 25.8 23.1721C26.0421 23.115 26.2572 22.9889 26.4127 22.8126C26.5682 22.6363 26.6559 22.4194 26.6625 22.1945C26.7492 22.2879 26.8166 22.3945 26.8616 22.5092C26.9636 22.7695 26.9465 23.0554 26.814 23.3043C26.6815 23.5532 26.4444 23.7446 26.1549 23.8363V23.8363Z" fill="#E0E0E2"/>
<path d="M24.4669 23.5617C23.6065 23.863 22.7875 24.252 22.0259 24.721C20.3561 25.7588 18.9968 27.1505 18.0682 28.773C18.0636 28.7816 18.0585 28.79 18.0527 28.798V25.1301C19.6633 23.4818 21.7155 22.2303 24.0148 21.4941C23.9178 21.8475 23.908 22.2158 23.9861 22.5729C24.0641 22.9301 24.2283 23.2676 24.4669 23.5617V23.5617Z" fill="#E5303E"/>
<path d="M56.3184 14.0059H51.3809C51.0739 14.0059 50.7796 13.8963 50.5626 13.7012C50.3456 13.5062 50.2236 13.2417 50.2236 12.9658C50.2236 12.69 50.3456 12.4254 50.5626 12.2304C50.7796 12.0354 51.0739 11.9258 51.3809 11.9258H56.3184C56.6253 11.9258 56.9196 12.0354 57.1366 12.2304C57.3537 12.4254 57.4756 12.69 57.4756 12.9658C57.4756 13.2417 57.3537 13.5062 57.1366 13.7012C56.9196 13.8963 56.6253 14.0059 56.3184 14.0059ZM56.3184 18.8594H49.6836C49.3767 18.8594 49.0823 18.7498 48.8653 18.5548C48.6483 18.3597 48.5264 18.0952 48.5264 17.8193C48.5264 17.5435 48.6483 17.279 48.8653 17.0839C49.0823 16.8889 49.3767 16.7793 49.6836 16.7793H56.3184C56.6253 16.7793 56.9196 16.8889 57.1366 17.0839C57.3537 17.279 57.4756 17.5435 57.4756 17.8193C57.4756 18.0952 57.3537 18.3597 57.1366 18.5548C56.9196 18.7498 56.6253 18.8594 56.3184 18.8594ZM56.3184 55.4688H51.3809C51.0739 55.4688 50.7796 55.3592 50.5626 55.1641C50.3456 54.9691 50.2236 54.7045 50.2236 54.4287C50.2236 54.1529 50.3456 53.8883 50.5626 53.6933C50.7796 53.4982 51.0739 53.3887 51.3809 53.3887H56.3184C56.6253 53.3887 56.9196 53.4982 57.1366 53.6933C57.3537 53.8883 57.4756 54.1529 57.4756 54.4287C57.4756 54.7045 57.3537 54.9691 57.1366 55.1641C56.9196 55.3592 56.6253 55.4688 56.3184 55.4688ZM56.3184 60.3223H49.6836C49.3767 60.3223 49.0823 60.2127 48.8653 60.0176C48.6483 59.8226 48.5264 59.5581 48.5264 59.2822C48.5264 59.0064 48.6483 58.7419 48.8653 58.5468C49.0823 58.3518 49.3767 58.2422 49.6836 58.2422H56.3184C56.6253 58.2422 56.9196 58.3518 57.1366 58.5468C57.3537 58.7419 57.4756 59.0064 57.4756 59.2822C57.4756 59.5581 57.3537 59.8226 57.1366 60.0176C56.9196 60.2127 56.6253 60.3223 56.3184 60.3223ZM56.3184 23.7129H49.6836C49.3767 23.7129 49.0823 23.6033 48.8653 23.4083C48.6483 23.2132 48.5264 22.9487 48.5264 22.6729C48.5264 22.397 48.6483 22.1325 48.8653 21.9374C49.0823 21.7424 49.3767 21.6328 49.6836 21.6328H56.3184C56.6253 21.6328 56.9196 21.7424 57.1366 21.9374C57.3537 22.1325 57.4756 22.397 57.4756 22.6729C57.4756 22.9487 57.3537 23.2132 57.1366 23.4083C56.9196 23.6033 56.6253 23.7129 56.3184 23.7129ZM56.3184 30.7852H31.7852C31.4782 30.7852 31.1839 30.6756 30.9669 30.4805C30.7499 30.2855 30.6279 30.021 30.6279 29.7451C30.6279 29.4693 30.7499 29.2047 30.9669 29.0097C31.1839 28.8147 31.4782 28.7051 31.7852 28.7051H56.3184C56.6253 28.7051 56.9196 28.8147 57.1366 29.0097C57.3537 29.2047 57.4756 29.4693 57.4756 29.7451C57.4756 30.021 57.3537 30.2855 57.1366 30.4805C56.9196 30.6756 56.6253 30.7852 56.3184 30.7852V30.7852ZM56.3184 35.6387H23.2988C22.9919 35.6387 22.6976 35.5291 22.4805 35.3341C22.2635 35.139 22.1416 34.8745 22.1416 34.5986C22.1416 34.3228 22.2635 34.0583 22.4805 33.8632C22.6976 33.6682 22.9919 33.5586 23.2988 33.5586H56.3184C56.6253 33.5586 56.9196 33.6682 57.1366 33.8632C57.3537 34.0583 57.4756 34.3228 57.4756 34.5986C57.4756 34.8745 57.3537 35.139 57.1366 35.3341C56.9196 35.5291 56.6253 35.6387 56.3184 35.6387ZM56.3184 40.4922H23.2988C22.9919 40.4922 22.6976 40.3826 22.4805 40.1876C22.2635 39.9925 22.1416 39.728 22.1416 39.4521C22.1416 39.1763 22.2635 38.9118 22.4805 38.7167C22.6976 38.5217 22.9919 38.4121 23.2988 38.4121H56.3184C56.6253 38.4121 56.9196 38.5217 57.1366 38.7167C57.3537 38.9118 57.4756 39.1763 57.4756 39.4521C57.4756 39.728 57.3537 39.9925 57.1366 40.1876C56.9196 40.3826 56.6253 40.4922 56.3184 40.4922ZM56.3184 45.3457H23.2988C22.9919 45.3457 22.6976 45.2361 22.4805 45.0411C22.2635 44.846 22.1416 44.5815 22.1416 44.3057C22.1416 44.0298 22.2635 43.7653 22.4805 43.5702C22.6976 43.3752 22.9919 43.2656 23.2988 43.2656H56.3184C56.6253 43.2656 56.9196 43.3752 57.1366 43.5702C57.3537 43.7653 57.4756 44.0298 57.4756 44.3057C57.4756 44.5815 57.3537 44.846 57.1366 45.0411C56.9196 45.2361 56.6253 45.3457 56.3184 45.3457ZM56.3184 50.1992H23.2988C22.9919 50.1992 22.6976 50.0896 22.4805 49.8946C22.2635 49.6996 22.1416 49.435 22.1416 49.1592C22.1416 48.8833 22.2635 48.6188 22.4805 48.4238C22.6976 48.2287 22.9919 48.1191 23.2988 48.1191H56.3184C56.6253 48.1191 56.9196 48.2287 57.1366 48.4238C57.3537 48.6188 57.4756 48.8833 57.4756 49.1592C57.4756 49.435 57.3537 49.6996 57.1366 49.8946C56.9196 50.0896 56.6253 50.1992 56.3184 50.1992Z" fill="#E0E0E2"/>
<path d="M36.9569 17.4111C38.3356 16.7716 38.8797 15.2543 38.1722 14.022C37.4646 12.7898 35.7733 12.3092 34.3945 12.9487C33.0158 13.5881 32.4717 15.1055 33.1792 16.3377C33.8868 17.57 35.5781 18.0505 36.9569 17.4111Z" fill="#E0E0E2"/>
<path d="M36.8908 16.4807C38.2696 15.8413 38.8137 14.3239 38.1061 13.0917C37.3986 11.8594 35.7073 11.3788 34.3285 12.0183C32.9497 12.6578 32.4056 14.1751 33.1132 15.4074C33.8208 16.6396 35.5121 17.1202 36.8908 16.4807Z" fill="#FDD402"/>
<path d="M39.7234 19.1886C39.8818 17.8093 38.7591 16.5751 37.2158 16.4319C35.6724 16.2887 34.2929 17.2909 34.1345 18.6702C33.9761 20.0495 35.0988 21.2838 36.6421 21.4269C38.1854 21.5701 39.565 20.568 39.7234 19.1886Z" fill="#E0E0E2"/>
<path d="M39.6575 18.2583C39.8159 16.8789 38.6932 15.6447 37.1499 15.5015C35.6065 15.3584 34.227 16.3605 34.0686 17.7398C33.9102 19.1192 35.0329 20.3534 36.5762 20.4966C38.1195 20.6398 39.4991 19.6376 39.6575 18.2583Z" fill="#E5303E"/>
<path d="M34.4648 13.0635C34.878 11.7275 34.0012 10.3417 32.5063 9.96821C31.0115 9.59475 29.4647 10.3751 29.0515 11.7111C28.6382 13.0471 29.515 14.4329 31.0099 14.8063C32.5047 15.1798 34.0515 14.3995 34.4648 13.0635Z" fill="#E5303E"/>
<path d="M32.0452 14.747C31.4494 14.602 30.9238 14.2835 30.5509 13.8414C30.1779 13.3994 29.9786 12.8586 29.9841 12.3039C29.9896 11.7492 30.1995 11.2117 30.5811 10.7756C30.9627 10.3396 31.4945 10.0296 32.093 9.89407C31.6855 9.85078 31.2724 9.88869 30.883 10.0051C30.4937 10.1215 30.1376 10.3135 29.8401 10.5676C29.5427 10.8216 29.3111 11.1314 29.1619 11.4749C29.0127 11.8185 28.9495 12.1873 28.9768 12.5553C29.0041 12.9233 29.1212 13.2813 29.3199 13.604C29.5185 13.9267 29.7938 14.2061 30.1262 14.4224C30.4585 14.6387 30.8398 14.7866 31.243 14.8555C31.6461 14.9244 32.0611 14.9126 32.4586 14.8211C32.319 14.8056 32.1808 14.7808 32.0452 14.747V14.747Z" fill="#B72732"/>
<path d="M29.0975 15.6023C30.3946 14.8373 30.7599 13.2773 29.9134 12.1179C29.0669 10.9586 27.3291 10.639 26.0319 11.4041C24.7348 12.1691 24.3695 13.7291 25.216 14.8884C26.0626 16.0478 27.8003 16.3674 29.0975 15.6023Z" fill="#FDD402"/>
<path d="M25.525 13.6823C25.6791 13.028 26.1147 12.4549 26.7369 12.088C27.359 11.721 28.1174 11.5899 28.8466 11.7233C29.2434 11.7958 29.6178 11.9454 29.9436 12.1616C29.7437 11.8744 29.4808 11.6268 29.1711 11.4339C28.8613 11.241 28.511 11.1068 28.1416 11.0394C27.4124 10.9061 26.6541 11.0372 26.0319 11.4041C25.4098 11.7711 24.9742 12.3441 24.8201 12.9985C24.7095 13.4681 24.7516 13.9564 24.9415 14.4051C25.1313 14.8537 25.4609 15.2438 25.8907 15.5287C25.5062 14.9794 25.3751 14.3171 25.525 13.6823V13.6823Z" fill="#FBBF13"/>
<path d="M28.2491 18.5787C28.6798 17.2472 27.8212 15.8522 26.3313 15.463C24.8414 15.0738 23.2846 15.8377 22.8539 17.1693C22.4232 18.5008 23.2819 19.8958 24.7717 20.285C26.2616 20.6742 27.8185 19.9103 28.2491 18.5787Z" fill="#AFAEB3"/>
<path d="M28.1834 17.6485C28.614 16.3169 27.7554 14.922 26.2655 14.5328C24.7757 14.1435 23.2188 14.9075 22.7881 16.239C22.3574 17.5706 23.2161 18.9655 24.7059 19.3548C26.1958 19.744 27.7527 18.9801 28.1834 17.6485Z" fill="#E5303E"/>
<path d="M23.8182 16.3472C23.9787 15.8538 24.3038 15.4165 24.7495 15.0944C25.1953 14.7722 25.7403 14.5808 26.311 14.5458C26.2957 14.5415 26.2808 14.5368 26.2654 14.5327C25.8731 14.4312 25.4608 14.4082 25.0576 14.4653C24.6543 14.5224 24.2699 14.6582 23.9314 14.8632C23.5928 15.0681 23.3084 15.3373 23.098 15.6517C22.8877 15.9662 22.7566 16.3182 22.7139 16.6831C22.6712 17.0479 22.7181 17.4168 22.8511 17.7636C22.9841 18.1105 23.2001 18.4269 23.4839 18.6907C23.7676 18.9544 24.1122 19.1591 24.4935 19.2903C24.8747 19.4214 25.2833 19.4759 25.6905 19.4499C24.988 19.2567 24.3981 18.8233 24.0478 18.2429C23.6976 17.6625 23.6151 16.9817 23.8182 16.3472V16.3472ZM26.6625 22.1944C26.6559 22.4194 26.5682 22.6363 26.4127 22.8126C26.2571 22.9889 26.0421 23.115 25.8 23.1721C25.3477 23.2789 24.9026 23.409 24.4668 23.5617C24.1902 23.2219 24.0144 22.8244 23.9561 22.4066C24.4212 22.2072 24.8976 22.0299 25.3834 21.8755C25.6072 21.8038 25.8501 21.7959 26.0791 21.853C26.308 21.9101 26.5118 22.0293 26.6625 22.1944V22.1944Z" fill="#B72732"/>
<path d="M26.6626 22.1944C26.5119 22.0293 26.3081 21.9101 26.0792 21.853C25.8502 21.7959 25.6072 21.8037 25.3834 21.8755C24.8976 22.0299 24.4212 22.2072 23.9562 22.4066C23.9121 22.1018 23.932 21.7923 24.0148 21.4941C24.4067 21.3679 24.8053 21.257 25.2106 21.1613C25.3576 21.1263 25.5109 21.1178 25.6616 21.1361C25.8123 21.1544 25.9575 21.1992 26.0889 21.268C26.2203 21.3367 26.3353 21.4281 26.4274 21.5369C26.5195 21.6456 26.5868 21.7697 26.6255 21.9018C26.6537 21.9972 26.6662 22.0958 26.6626 22.1944V22.1944Z" fill="#B72732"/>
<path d="M29.4383 22.7519C29.2348 23.3952 28.7567 23.9402 28.1082 24.2682C27.4598 24.5962 26.6934 24.6807 25.9759 24.5033C25.6972 24.4345 25.4322 24.3269 25.1905 24.1844C24.9084 24.019 24.663 23.8078 24.4668 23.5618C24.9026 23.4091 25.3477 23.279 25.8 23.1721C26.0421 23.115 26.2571 22.9889 26.4127 22.8126C26.5682 22.6363 26.6559 22.4194 26.6625 22.1945C26.6661 22.0958 26.6536 21.9972 26.6255 21.9019C26.5867 21.7697 26.5194 21.6457 26.4273 21.5369C26.3353 21.4282 26.2202 21.3368 26.0888 21.268C25.9574 21.1992 25.8122 21.1544 25.6615 21.1361C25.5108 21.1178 25.3576 21.1264 25.2106 21.1614C24.8048 21.257 24.4062 21.368 24.0148 21.4942C24.0225 21.465 24.0302 21.4373 24.0394 21.4082C24.243 20.7649 24.721 20.2199 25.3695 19.8919C26.018 19.5639 26.7844 19.4794 27.5019 19.6568C27.8559 19.7446 28.187 19.8946 28.4763 20.098C28.7655 20.3015 29.0071 20.5543 29.1871 20.842C29.3671 21.1297 29.4819 21.4466 29.525 21.7744C29.5682 22.1022 29.5387 22.4344 29.4383 22.7519V22.7519Z" fill="#E0E0E2"/>
<path d="M28.1085 22.8817C29.4608 22.1981 29.9438 20.6642 29.1874 19.4556C28.431 18.247 26.7216 17.8213 25.3693 18.5049C24.017 19.1885 23.534 20.7224 24.2903 21.9311C25.0467 23.1397 26.7562 23.5653 28.1085 22.8817Z" fill="#FDD402"/>
<path d="M26.7833 22.5306C26.3313 22.4174 25.9184 22.2037 25.5827 21.9091C25.247 21.6145 24.9995 21.2485 24.8629 20.8451C24.7263 20.4417 24.7051 20.0139 24.8013 19.6012C24.8975 19.1885 25.108 18.8042 25.4133 18.484C25.0506 18.6589 24.7353 18.9036 24.49 19.2006C24.2447 19.4977 24.0754 19.8398 23.9942 20.2024C23.9131 20.5651 23.922 20.9394 24.0204 21.2986C24.1188 21.6577 24.3043 21.993 24.5635 22.2803C24.8228 22.5676 25.1494 22.7999 25.5201 22.9607C25.8908 23.1214 26.2965 23.2066 26.7081 23.2101C27.1197 23.2136 27.527 23.1354 27.9011 22.9811C28.2752 22.8268 28.6067 22.6001 28.872 22.3172C28.2328 22.6288 27.484 22.7053 26.7833 22.5306V22.5306Z" fill="#FBBF13"/>
<path d="M36.1451 24.5945C37.5198 23.9481 38.0544 22.428 37.3391 21.1994C36.6239 19.9707 34.9296 19.4987 33.5548 20.1451C32.1801 20.7916 31.6455 22.3116 32.3608 23.5403C33.0761 24.769 34.7704 25.2409 36.1451 24.5945Z" fill="#E0E0E2"/>
<path d="M36.0791 23.6642C37.4538 23.0178 37.9884 21.4977 37.2731 20.2691C36.5578 19.0404 34.8635 18.5684 33.4888 19.2148C32.1141 19.8613 31.5795 21.3813 32.2948 22.61C33.01 23.8387 34.7043 24.3106 36.0791 23.6642Z" fill="#FDD402"/>
<path d="M33.3703 24.1387C33.769 22.7991 32.8773 21.421 31.3785 21.0606C29.8797 20.7003 28.3414 21.494 27.9426 22.8336C27.5438 24.1732 28.4356 25.5512 29.9344 25.9116C31.4332 26.272 32.9715 25.4782 33.3703 24.1387Z" fill="#E0E0E2"/>
<path d="M33.3042 23.2083C33.703 21.8687 32.8112 20.4907 31.3124 20.1303C29.8136 19.7699 28.2753 20.5637 27.8766 21.9032C27.4778 23.2428 28.3696 24.6209 29.8684 24.9813C31.3672 25.3416 32.9055 24.5479 33.3042 23.2083Z" fill="#E5303E"/>
<path d="M29.9667 24.0529C29.4128 23.9206 28.9172 23.6391 28.5464 23.2463C28.1755 22.8535 27.9473 22.3681 27.8922 21.8554C27.8871 21.8713 27.8814 21.8869 27.8766 21.903C27.7699 22.2596 27.7515 22.6329 27.8227 22.9965C27.8939 23.3602 28.053 23.7054 28.2888 24.0078C28.5246 24.3102 28.8313 24.5624 29.1874 24.7467C29.5434 24.931 29.9401 25.0428 30.3495 25.0744C30.7588 25.1059 31.1709 25.0564 31.5566 24.9293C31.9424 24.8021 32.2924 24.6005 32.582 24.3386C32.8717 24.0767 33.0938 23.7609 33.2329 23.4134C33.372 23.066 33.4246 22.6953 33.387 22.3276C33.1816 22.9603 32.7083 23.4954 32.0689 23.818C31.4294 24.1406 30.6746 24.2249 29.9667 24.0529V24.0529Z" fill="#B72732"/>
<path d="M36.4847 16.6338C35.5553 16.4313 36.2641 15.9234 36.0666 15.5901C35.7502 15.0571 35.3011 14.597 34.7543 14.2455C34.2076 13.8941 33.5779 13.6608 32.9144 13.564C32.7741 14.0034 32.7701 14.469 32.9029 14.9104C33.0356 15.3518 33.3001 15.7521 33.6677 16.0682C34.0353 16.3843 34.492 16.604 34.9885 16.7037C35.485 16.8034 36.0024 16.7792 36.4847 16.6338V16.6338Z" fill="#FBBF13"/>
<path d="M34.0686 17.7399C34.0159 18.2045 34.1085 18.6732 34.336 19.0931C34.5636 19.5131 34.917 19.8676 35.3566 20.1167C35.5312 19.732 35.8968 19.5349 36.086 19.2078C36.4093 18.6486 36.5764 18.0271 36.573 17.3969C36.5696 16.7667 36.3958 16.1467 36.0664 15.5903C35.5335 15.7297 35.0589 16.0087 34.7031 16.3915C34.3473 16.7743 34.1264 17.2437 34.0686 17.7399Z" fill="#B72732"/>
<path d="M31.9822 21.3072C32.295 21.1731 32.6536 21.3051 32.9857 21.2521C33.642 21.1471 34.2628 20.9083 34.8003 20.5539C35.3378 20.1995 35.7777 19.7391 36.0862 19.208C35.6694 19.0144 35.2054 18.9175 34.7364 18.926C34.2673 18.9345 33.8081 19.0482 33.4004 19.2568C32.9926 19.4653 32.6494 19.7621 32.4017 20.1202C32.154 20.4783 32.0098 20.8863 31.9822 21.3072V21.3072Z" fill="#FBBF13"/>
<path d="M34.031 13.8689C33.3531 13.59 32.6073 13.4712 31.8641 13.5234C31.1209 13.5757 30.4047 13.7974 29.7834 14.1676C30.0709 14.4229 30.4161 14.6196 30.7957 14.7444C31.1752 14.8692 31.5802 14.9191 31.9832 14.8907C32.3861 14.8624 32.7775 14.7565 33.1308 14.5801C33.4842 14.4038 33.7912 14.1612 34.031 13.8689V13.8689ZM32.9857 21.2516C32.6147 20.7088 32.0299 20.3114 31.3476 20.1387C30.6653 19.966 29.9356 20.0307 29.304 20.3198C29.7996 20.7148 30.3883 21.0039 31.0259 21.1653C31.6635 21.3267 32.3335 21.3562 32.9857 21.2516Z" fill="#B72732"/>
<path d="M35.5158 17.874C35.7619 15.7311 34.0177 13.8137 31.62 13.5913C29.2224 13.3689 27.0791 14.9257 26.8331 17.0685C26.587 19.2114 28.3312 21.1288 30.7288 21.3512C33.1265 21.5736 35.2697 20.0168 35.5158 17.874Z" fill="white"/>
<path d="M28.8246 19.8709C28.3488 19.3459 28.0335 18.7185 27.9097 18.0505C27.7859 17.3826 27.8578 16.6972 28.1184 16.0619C28.3791 15.4266 28.8193 14.8633 29.3959 14.4274C29.9725 13.9916 30.6655 13.6982 31.4066 13.5764C30.7926 13.5454 30.1783 13.6321 29.6043 13.8305C29.0303 14.029 28.5098 14.3348 28.0772 14.7276C27.6446 15.1204 27.3097 15.5914 27.0948 16.1092C26.8798 16.6271 26.7897 17.18 26.8304 17.7315C26.8711 18.283 27.0417 18.8205 27.3309 19.3083C27.62 19.7961 28.0211 20.2232 28.5077 20.5612C28.9943 20.8992 29.5552 21.1405 30.1533 21.2691C30.7514 21.3977 31.3731 21.4107 31.9772 21.3071C31.3694 21.2784 30.7749 21.1358 30.232 20.8885C29.6891 20.6412 29.2097 20.2946 28.8246 19.8709Z" fill="#E0E0E2"/>
<path d="M31.1743 18.5115C31.8134 18.5115 32.3315 18.0458 32.3315 17.4714C32.3315 16.897 31.8134 16.4314 31.1743 16.4314C30.5352 16.4314 30.0171 16.897 30.0171 17.4714C30.0171 18.0458 30.5352 18.5115 31.1743 18.5115Z" fill="#F7991D"/>
</svg>
