<svg width="79" height="71" viewBox="0 0 79 71" fill="none" xmlns="http://www.w3.org/2000/svg">
<path d="M39.5 69.4746C60.3779 69.4746 77.3027 54.2637 77.3027 35.5C77.3027 16.7363 60.3779 1.52539 39.5 1.52539C18.6221 1.52539 1.69727 16.7363 1.69727 35.5C1.69727 54.2637 18.6221 69.4746 39.5 69.4746Z" fill="#2EB9FF"/>
<path d="M39.5 63.2344C56.5432 63.2344 70.3594 50.8173 70.3594 35.5C70.3594 20.1827 56.5432 7.76562 39.5 7.76562C22.4568 7.76562 8.64062 20.1827 8.64062 35.5C8.64062 50.8173 22.4568 63.2344 39.5 63.2344Z" fill="#6CDCFF"/>
<path d="M77.3027 35.5C77.3027 45.9939 71.7636 56.0708 62.5031 62.462C52.4373 69.4092 38.7956 71.3424 26.834 67.5205C15.676 63.9552 6.81446 55.6356 3.34788 45.4606C-0.0688746 35.4315 1.9447 24.2813 8.73608 15.7525C18.4825 3.51245 36.5826 -1.58929 52.3529 3.54032C67.1705 8.341 77.3027 21.3584 77.3027 35.5Z" fill="#7034E2"/>
<path d="M70.3594 35.5C70.3594 46.802 62.8372 56.526 52.0453 60.8459C48.2124 62.382 43.9677 63.2344 39.5 63.2344C34.8069 63.2344 30.3581 62.2925 26.3754 60.6081C15.8944 56.1751 8.64062 46.5994 8.64062 35.5C8.64062 20.1827 22.4568 7.76562 39.5 7.76562C56.5432 7.76562 70.3594 20.1827 70.3594 35.5Z" fill="#8057FF"/>
<path d="M55.8279 59.0927L52.5619 32.7157L63.3076 31.641L67.0781 62.0931C67.1857 62.9622 66.489 63.7452 65.522 63.8419L62.8127 64.1129C59.3414 64.46 56.2142 62.2124 55.8279 59.0927ZM13.3512 20.9174L42.7001 23.8527L43.8959 14.1951L10.0127 10.8064C9.04568 10.7098 8.17436 11.3359 8.06682 12.2049L7.76532 14.6399C7.37896 17.7597 9.87996 20.5702 13.3512 20.9174Z" fill="#ECE2E2"/>
<path d="M75.0024 68.6785L71.2525 38.3937V38.3935V38.3934L71.2318 38.2263L71.2272 38.2267C70.394 32.3137 64.4326 28.0762 57.8185 28.7377C51.1421 29.4054 46.3319 34.8109 47.0748 40.8114C47.8177 46.8119 53.8324 51.1348 60.509 50.4671C60.9632 50.4216 61.4079 50.3524 61.8438 50.2644L63.7523 65.6778C64.1385 68.7976 67.2658 71.0452 70.737 70.698L73.4463 70.427C74.4133 70.3306 75.1101 69.5477 75.0024 68.6785ZM36.5679 7.07753L36.5684 7.07323L36.3826 7.05465H36.3825H36.3823L2.68526 3.68465C1.71829 3.58799 0.847125 4.2141 0.739426 5.08315L0.43793 7.51809C0.0515706 10.6379 2.55242 13.4484 6.02379 13.7956L23.1739 15.5109C23.0759 15.9025 22.9989 16.3023 22.9483 16.7104C22.2054 22.7108 27.0154 28.1164 33.692 28.7841C40.3686 29.4518 46.3832 25.1289 47.1262 19.1284C47.8622 13.1841 43.1473 7.82636 36.5679 7.07753Z" fill="#F2F2F2"/>
<path d="M59.6343 2.16533L76.3498 16.7976C79.297 19.3776 79.3592 23.6162 76.4885 26.265L44.9021 55.4105C42.0314 58.0593 37.3151 58.1151 34.3679 55.5352L17.6525 40.9029C14.7053 38.3229 14.6431 34.0843 17.5138 31.4355L49.1002 2.29C51.9707 -0.358772 56.6871 -0.414657 59.6343 2.16533Z" fill="#36B990"/>
<path d="M37.6608 49.3295C38.677 48.3918 40.3465 48.3721 41.3897 49.2854L41.634 49.4992C42.6772 50.4125 44.3467 50.3927 45.3629 49.4551L69.8212 26.8868C70.8374 25.9493 70.8154 24.4488 69.7722 23.5355L69.5279 23.3217C68.4847 22.4084 68.4626 20.908 69.4788 19.9704C70.495 19.0329 70.473 17.5324 69.4298 16.6191L60.0152 8.378C58.972 7.46471 57.3025 7.48454 56.2863 8.4221C55.2701 9.35966 53.6006 9.37949 52.5574 8.4662L52.3132 8.25237C51.27 7.33907 49.6005 7.3589 48.5843 8.29647L24.1259 30.8648C23.1097 31.8023 23.1318 33.3027 24.175 34.216L24.4192 34.4299C25.4624 35.3432 25.4845 36.8436 24.4683 37.7812C23.4521 38.7187 23.4742 40.2191 24.5174 41.1324L33.9319 49.3736C34.9753 50.2869 36.6448 50.267 37.6608 49.3295Z" fill="#77D9A5"/>
<path d="M57.2297 21.045C54.8071 20.4502 54.7656 17.6127 57.1698 16.9608C57.481 16.8764 57.8154 16.8725 58.1289 16.9495C60.5515 17.5442 60.593 20.3817 58.1888 21.0336C57.8776 21.1181 57.5432 21.1219 57.2297 21.045ZM35.8733 40.7511C33.4507 40.1563 33.4092 37.3188 35.8134 36.6669C36.1246 36.5825 36.459 36.5786 36.7725 36.6556C39.1951 37.2503 39.2367 40.0878 36.8324 40.7397C36.5213 40.824 36.187 40.8281 35.8733 40.7511Z" fill="#36B990"/>
<path d="M18.4079 38.3717L12.2981 43.8629C11.6206 44.4718 10.5207 44.4718 9.84322 43.8629C9.82795 43.8491 9.81267 43.8354 9.79848 43.8207C9.16571 43.2089 9.18098 42.2518 9.84322 41.6566L15.9531 36.1655C16.6153 35.5703 17.6803 35.5566 18.361 36.1253C18.3774 36.138 18.3927 36.1517 18.4079 36.1655C18.7472 36.4704 18.9163 36.8695 18.9153 37.2686C18.9163 37.6677 18.7472 38.0668 18.4079 38.3717Z" fill="white"/>
<path d="M18.4079 38.3717L12.2981 43.8629C11.6206 44.4718 10.5207 44.4718 9.84321 43.8629C9.82793 43.8491 9.81266 43.8354 9.79846 43.8207L18.361 36.1252C18.3774 36.138 18.3926 36.1517 18.4079 36.1655C18.7472 36.4704 18.9163 36.8695 18.9152 37.2686C18.9163 37.6677 18.7472 38.0668 18.4079 38.3717Z" fill="#D6E6ED"/>
<path d="M15.0458 51.296L8.93591 56.7871C8.25839 57.396 7.15856 57.396 6.48104 56.7871C6.46577 56.7734 6.45049 56.7597 6.4363 56.745C5.80352 56.1331 5.8188 55.176 6.48104 54.5809L12.5909 49.0897C13.2531 48.4945 14.3181 48.4808 14.9988 49.0495C15.0152 49.0623 15.0305 49.076 15.0458 49.0897C15.3851 49.3947 15.5542 49.7938 15.5531 50.1929C15.5542 50.592 15.3851 50.9911 15.0458 51.296Z" fill="white"/>
<path d="M15.0457 51.2959L8.93589 56.787C8.25837 57.396 7.15854 57.396 6.48103 56.787C6.46575 56.7733 6.45047 56.7596 6.43628 56.7449L14.9988 49.0494C15.0152 49.0622 15.0305 49.0759 15.0457 49.0897C15.385 49.3946 15.5541 49.7937 15.5531 50.1928C15.5541 50.5919 15.385 50.991 15.0457 51.2959Z" fill="#D6E6ED"/>
<path d="M26.294 54.4022L20.1842 59.8933C19.5067 60.5022 18.4069 60.5022 17.7293 59.8933C17.7141 59.8796 17.6988 59.8659 17.6846 59.8512C17.0518 59.2393 17.0671 58.2822 17.7293 57.6871L23.8392 52.1959C24.5014 51.6007 25.5664 51.587 26.2471 52.1557C26.2635 52.1685 26.2788 52.1822 26.294 52.1959C26.6333 52.5009 26.8025 52.9 26.8014 53.2991C26.8025 53.6982 26.6333 54.0973 26.294 54.4022Z" fill="white"/>
<path d="M26.294 54.4022L20.1842 59.8934C19.5067 60.5023 18.4068 60.5023 17.7293 59.8934C17.714 59.8796 17.6988 59.8659 17.6846 59.8512L26.2471 52.1558C26.2635 52.1685 26.2788 52.1822 26.294 52.196C26.6333 52.5009 26.8024 52.9 26.8014 53.2991C26.8024 53.6982 26.6333 54.0973 26.294 54.4022Z" fill="#D6E6ED"/>
<path d="M36.4314 57.0925L30.3215 62.5836C29.644 63.1925 28.5442 63.1925 27.8667 62.5836C27.8514 62.5699 27.8361 62.5562 27.8219 62.5415C27.1891 61.9297 27.2044 60.9725 27.8667 60.3774L33.9765 54.8862C34.6388 54.2911 35.7037 54.2773 36.3845 54.846C36.4008 54.8588 36.4161 54.8725 36.4314 54.8862C36.7707 55.1912 36.9398 55.5903 36.9387 55.9894C36.9398 56.3885 36.7707 56.7876 36.4314 57.0925Z" fill="white"/>
<path d="M36.4314 57.0926L30.3215 62.5837C29.644 63.1926 28.5442 63.1926 27.8666 62.5837C27.8514 62.57 27.8361 62.5562 27.8219 62.5415L36.3845 54.8461C36.4008 54.8588 36.4161 54.8726 36.4314 54.8863C36.7707 55.1912 36.9398 55.5903 36.9387 55.9894C36.9398 56.3885 36.7707 56.7876 36.4314 57.0926Z" fill="#D6E6ED"/>
<path d="M53.1955 21.8696C56.9105 25.2084 56.9105 30.621 53.1955 33.9598C51.6661 35.3343 49.746 36.1426 47.7576 36.3848C46.8566 36.4951 45.9412 36.4889 45.041 36.3669C43.1018 36.1041 41.2354 35.3013 39.7429 33.9598C36.0279 30.621 36.0279 25.2084 39.7429 21.8696C39.8265 21.7944 39.9117 21.7206 39.9977 21.6488C41.4204 20.4598 43.1501 19.7355 44.9474 19.4748C47.8605 19.0528 50.9492 19.8508 53.1955 21.8696Z" fill="#36B990"/>
<path d="M46.5269 26.9861C46.313 27.1097 46.1101 27.2568 45.9236 27.4245C45.7304 27.5981 45.5111 27.7304 45.2755 27.8226C44.4954 28.1314 43.5506 27.9982 42.9123 27.4245C42.274 26.8508 42.1257 26.0017 42.4693 25.3006C42.5719 25.0888 42.7191 24.8916 42.9123 24.7182C43.1055 24.5445 43.3248 24.4123 43.5604 24.32C44.3405 24.0112 45.2853 24.1445 45.9236 24.7182C46.2248 24.9888 46.7123 24.9898 47.0146 24.7182C47.3158 24.4475 47.3158 24.0083 47.0146 23.7376C45.7697 22.6188 43.8463 22.4726 42.4246 23.2993L41.5233 22.4893C41.3728 22.3539 41.1753 22.2863 40.9779 22.2872C40.7804 22.2863 40.5829 22.3539 40.4323 22.4893C40.1311 22.76 40.1311 23.1991 40.4323 23.4698L41.3336 24.2798C40.4138 25.5575 40.5764 27.2862 41.8213 28.405C43.0662 29.5238 44.9896 29.67 46.4113 28.8434C46.6252 28.7198 46.827 28.5737 47.0146 28.405C47.2078 28.2314 47.427 28.0991 47.6627 28.0069C48.4428 27.6981 49.3875 27.8313 50.0259 28.405C50.6642 28.9787 50.8125 29.8278 50.4689 30.5289C50.3662 30.7407 50.219 30.9379 50.0259 31.1113C49.8327 31.285 49.6134 31.4173 49.3778 31.5095C48.5977 31.8183 47.6529 31.685 47.0146 31.1113C46.7134 30.8407 46.2248 30.8407 45.9236 31.1113C45.6224 31.382 45.6224 31.8212 45.9236 32.0919C47.1684 33.2107 49.0919 33.3569 50.5136 32.5302L51.4148 33.3402C51.716 33.6109 52.2047 33.6109 52.5059 33.3402C52.8071 33.0695 52.8071 32.6304 52.5059 32.3597L51.6046 31.5497C52.5244 30.272 52.3618 28.5433 51.1169 27.4245C49.872 26.3055 47.9486 26.1595 46.5269 26.9861Z" fill="white"/>
</svg>
