<svg width="27" height="27" viewBox="0 0 27 27" fill="none" xmlns="http://www.w3.org/2000/svg">
<path d="M15.1875 3.09375H11.8125C10.7252 3.09375 9.84375 3.97519 9.84375 5.0625C9.84375 6.14981 10.7252 7.03125 11.8125 7.03125H15.1875C16.2748 7.03125 17.1562 6.14981 17.1562 5.0625C17.1562 3.97519 16.2748 3.09375 15.1875 3.09375Z" stroke="#1B1B1B" stroke-width="1.5"/>
<path fill-rule="evenodd" clip-rule="evenodd" d="M9.05227 4.5372C9.01796 4.71807 9 4.90473 9 5.09558C9 5.4932 9.07793 5.87262 9.21935 6.2194C8.62136 6.24093 8.11028 6.27695 7.66213 6.3372C6.62384 6.47679 6.17948 6.71805 5.88626 7.01126C5.59305 7.30446 5.35179 7.74884 5.2122 8.78712C5.06609 9.87395 5.0625 11.331 5.0625 13.5V15.75C5.0625 17.919 5.06609 19.376 5.2122 20.4628C5.35179 21.5011 5.59305 21.9455 5.88626 22.2388C6.17948 22.5319 6.62384 22.7732 7.66213 22.9127C8.74897 23.0589 10.206 23.0625 12.375 23.0625H14.625C16.794 23.0625 18.251 23.0589 19.3378 22.9127C20.3761 22.7732 20.8205 22.5319 21.1138 22.2388C21.4069 21.9455 21.6481 21.5011 21.7878 20.4628C21.9339 19.376 21.9375 17.919 21.9375 15.75V13.5C21.9375 11.331 21.9339 9.87395 21.7878 8.78712C21.6481 7.74884 21.4069 7.30446 21.1138 7.01126C20.8205 6.71805 20.3761 6.47679 19.3378 6.3372C18.8898 6.27695 18.3787 6.24093 17.7806 6.2194C17.922 5.87262 18 5.4932 18 5.09558C18 4.90473 17.982 4.71807 17.9477 4.5372C20.085 4.62219 21.3903 4.90132 22.3069 5.81801C23.625 7.13603 23.625 9.25735 23.625 13.5V15.75C23.625 19.9926 23.625 22.114 22.3069 23.4319C20.989 24.75 18.8676 24.75 14.625 24.75H12.375C8.13236 24.75 6.01104 24.75 4.69302 23.4319C3.375 22.114 3.375 19.9926 3.375 15.75V13.5C3.375 9.25735 3.375 7.13603 4.69302 5.81801C5.60971 4.90132 6.91498 4.62219 9.05227 4.5372Z" fill="#1B1B1B"/>
<path d="M11.25 15.1875L12.9375 16.875L16.3125 13.5" stroke="#1B1B1B" stroke-width="1.5" stroke-linecap="round" stroke-linejoin="round"/>
</svg>
