<svg width="34" height="35" viewBox="0 0 34 35" fill="none" xmlns="http://www.w3.org/2000/svg">
<g filter="url(#filter0_d_82_318)">
<path d="M21.6041 7.24999C21.6041 9.41886 19.5427 11.1771 16.9999 11.1771C14.4571 11.1771 12.3958 9.41886 12.3958 7.24999C12.3958 5.08112 14.4571 3.32291 16.9999 3.32291C19.5427 3.32291 21.6041 5.08112 21.6041 7.24999Z" stroke="#1B1B1B" stroke-width="1.5"/>
<path d="M25.8541 20.5417C25.8541 21.8414 24.9912 23.1036 23.3945 24.0763C21.7999 25.0479 19.5424 25.6771 16.9999 25.6771C14.4574 25.6771 12.2 25.0479 10.6053 24.0763C9.00866 23.1036 8.14575 21.8414 8.14575 20.5417C8.14575 19.242 9.00866 17.9798 10.6053 17.007C12.2 16.0354 14.4574 15.4062 16.9999 15.4062C19.5424 15.4062 21.7999 16.0354 23.3945 17.007C24.9912 17.9798 25.8541 19.242 25.8541 20.5417Z" stroke="#1B1B1B" stroke-width="1.5"/>
</g>
<defs>
<filter id="filter0_d_82_318" x="-4" y="0" width="42" height="37" filterUnits="userSpaceOnUse" color-interpolation-filters="sRGB">
<feFlood flood-opacity="0" result="BackgroundImageFix"/>
<feColorMatrix in="SourceAlpha" type="matrix" values="0 0 0 0 0 0 0 0 0 0 0 0 0 0 0 0 0 0 127 0" result="hardAlpha"/>
<feOffset dy="4"/>
<feGaussianBlur stdDeviation="2"/>
<feComposite in2="hardAlpha" operator="out"/>
<feColorMatrix type="matrix" values="0 0 0 0 0 0 0 0 0 0 0 0 0 0 0 0 0 0 0.25 0"/>
<feBlend mode="normal" in2="BackgroundImageFix" result="effect1_dropShadow_82_318"/>
<feBlend mode="normal" in="SourceGraphic" in2="effect1_dropShadow_82_318" result="shape"/>
</filter>
</defs>
</svg>
