<svg width="79" height="71" viewBox="0 0 79 71" fill="none" xmlns="http://www.w3.org/2000/svg">
<path d="M75.6143 35.5C75.6143 36.6157 75.5579 37.6807 75.445 38.7457C73.7522 54.1121 60.0965 66.3343 42.9422 67.805C41.8136 67.9064 40.685 67.9571 39.5 67.9571C19.5807 67.9571 3.38574 53.4021 3.38574 35.5C3.38574 17.5978 19.5807 3.04285 39.5 3.04285C59.4757 3.04285 75.6143 17.5978 75.6143 35.5Z" fill="#23A8D5"/>
<path opacity="0.3" d="M75.445 38.7457C73.7522 54.1121 60.0964 66.3343 42.9422 67.805L17.4929 44.9835C17.4364 44.9328 17.38 44.9328 17.38 44.8821C17.3236 44.8314 17.3236 44.8314 17.2672 44.7807C17.2107 44.73 17.2107 44.6793 17.1543 44.6285C17.0979 44.5778 17.0979 44.5271 17.0414 44.4257C17.0414 44.375 16.985 44.2735 16.985 44.2228C16.985 44.1721 16.985 44.0707 16.985 44.02V37.7314C17.2107 37.7314 17.4364 37.6807 17.6622 37.63C17.7186 37.63 17.775 37.5793 17.8879 37.5793C17.9443 37.5285 18.0572 37.5285 18.1136 37.4778C18.17 37.4271 18.2264 37.4271 18.2829 37.3764C18.3393 37.3257 18.3957 37.3257 18.4522 37.275C18.6214 37.1735 18.7907 37.0214 18.9036 36.8185C18.96 36.7678 18.96 36.7171 19.0164 36.6664C19.0729 36.565 19.1857 36.4128 19.1857 36.3114C19.1857 36.2607 19.2422 36.1593 19.2422 36.1085C19.2986 35.9564 19.2986 35.855 19.2986 35.7028L16.9286 33.5221V27.2843C16.9286 26.5743 17.5493 26.0164 18.3393 26.0164H43.9014L53.8329 23.3285C53.9457 23.2778 54.0586 23.2778 54.1714 23.2778C54.2279 23.2778 54.2843 23.2778 54.3407 23.2778C54.3972 23.2778 54.3972 23.2778 54.4536 23.3285C54.51 23.3285 54.5664 23.3285 54.6229 23.3793C54.6793 23.3793 54.7357 23.43 54.7357 23.43C54.7922 23.4807 54.8486 23.4807 54.905 23.5314C54.905 23.5314 54.905 23.5314 54.9614 23.5821L55.0179 23.6328L57.7264 26.0671H60.6043C60.6607 26.0671 60.7172 26.0671 60.7736 26.0671C60.83 26.0671 60.8864 26.0671 60.9429 26.0671C60.9993 26.0671 61.0557 26.0671 61.1122 26.1178C61.1686 26.1178 61.225 26.1685 61.2814 26.1685C61.3379 26.1685 61.3943 26.2193 61.3943 26.2193C61.5072 26.27 61.62 26.3714 61.7329 26.5235L61.7893 26.5743L75.445 38.7457Z" fill="black"/>
<path d="M55.3564 23.9878L59.8142 37.1735C59.9835 37.7314 59.645 38.3399 59.0242 38.4921L25.1671 47.7221C24.5464 47.8742 23.8692 47.5699 23.7 47.0121L22.0071 42.1942C23.0792 41.8899 23.6435 40.8757 23.305 39.9121C22.9664 38.9485 21.8378 38.3907 20.7657 38.6442L19.1292 33.8264C18.96 33.2685 19.2985 32.6599 19.9192 32.5078L53.7764 23.2778C54.51 23.1257 55.1307 23.4299 55.3564 23.9878Z" fill="#DFE1E2"/>
<path d="M48.7543 26.0165V45.0343H18.3393C17.5493 45.0343 16.9286 44.4765 16.9286 43.7665V37.7315C18.2829 37.6808 19.2986 36.7172 19.2986 35.5001C19.2986 34.2829 18.2264 33.3193 16.9286 33.2686V27.2843C16.9286 26.5743 17.5493 26.0165 18.3393 26.0165H48.7543Z" fill="#F3F3F3"/>
<path d="M48.7542 41.2814C48.0771 41.2814 47.5128 41.7885 47.5128 42.3971C47.5128 43.0057 48.0771 43.5128 48.7542 43.5128C49.4314 43.5128 49.9957 43.0057 49.9957 42.3971C49.9957 41.7885 49.4314 41.2814 48.7542 41.2814Z" fill="#E45647"/>
<path d="M48.7543 41.2814V43.5128C49.4314 43.5128 49.9957 43.0057 49.9957 42.3971C49.9957 41.7885 49.4314 41.2814 48.7543 41.2814Z" fill="#F3F3F3"/>
<path d="M44.24 35.2465H22.5714V36.21H44.24V35.2465Z" fill="#939393"/>
<path d="M33.4057 38.2893H22.5714V39.2529H33.4057V38.2893Z" fill="#939393"/>
<path d="M33.4057 41.3322H22.5714V42.2957H33.4057V41.3322Z" fill="#939393"/>
<path d="M22.8535 29.4142H24.0949V32.6092H24.9414V29.4142H26.1828V28.8057H22.8535V29.4142Z" fill="#072C49"/>
<path d="M27.5936 28.8057H26.7472V32.6092H27.5936V28.8057Z" fill="#072C49"/>
<path d="M30.7536 31.7979C30.5843 31.9501 30.415 32.0008 30.1893 32.0008C29.9071 32.0008 29.625 31.8993 29.4557 31.6965C29.2864 31.4936 29.1736 31.1386 29.1736 30.6822C29.1736 30.2258 29.2864 29.9215 29.4557 29.7186C29.625 29.5158 29.9071 29.4143 30.2457 29.4143C30.4714 29.4143 30.6407 29.4651 30.81 29.5665C30.9793 29.6679 31.0921 29.8201 31.1486 30.0229L31.995 29.8201C31.8821 29.5158 31.7693 29.2622 31.5436 29.1101C31.205 28.8565 30.81 28.7043 30.3021 28.7043C29.6814 28.7043 29.23 28.8565 28.8914 29.2115C28.5529 29.5665 28.3271 30.0736 28.3271 30.6822C28.3271 31.2908 28.4964 31.7472 28.8914 32.1022C29.23 32.4572 29.7379 32.6093 30.3021 32.6093C30.7536 32.6093 31.1486 32.5079 31.4307 32.3051C31.7129 32.1022 31.9386 31.7979 32.0514 31.3922L31.205 31.1386C31.0357 31.4936 30.9229 31.6965 30.7536 31.7979Z" fill="#072C49"/>
<path d="M36.4528 28.8057H35.2678L33.575 30.4792V28.8057H32.6721V32.6092H33.575V31.4428L34.2521 30.8342L35.4371 32.6092H36.5093L34.8164 30.2764L36.4528 28.8057Z" fill="#072C49"/>
<path d="M37.8071 30.9357H39.9514V30.2764H37.8071V29.4142H40.1207V28.8057H36.9607V32.6092H40.1771V31.95H37.8071V30.9357Z" fill="#072C49"/>
<path d="M40.6285 28.8057V29.4142H41.87V32.6092H42.7164V29.4142H44.0143V28.8057H40.6285Z" fill="#072C49"/>
<path d="M48.7543 26.2192V45.2371H18.3393C17.5493 45.2371 16.9286 44.6792 16.9286 43.9692V37.9342C18.2829 37.8835 19.2986 36.92 19.2986 35.7028C19.2986 34.4857 18.2264 33.5221 16.9286 33.4714V27.4871C16.9286 26.7771 17.5493 26.2192 18.3393 26.2192H48.7543Z" fill="#F7F8F9"/>
<path d="M48.7542 41.2814C48.0771 41.2814 47.5128 41.7885 47.5128 42.3971C47.5128 43.0057 48.0771 43.5128 48.7542 43.5128C49.4314 43.5128 49.9957 43.0057 49.9957 42.3971C49.9957 41.7885 49.4314 41.2814 48.7542 41.2814Z" fill="#E45647"/>
<path d="M44.24 35.2465H22.5714V36.21H44.24V35.2465Z" fill="#939393"/>
<path d="M33.4057 38.2893H22.5714V39.2529H33.4057V38.2893Z" fill="#939393"/>
<path d="M33.4057 41.3322H22.5714V42.2957H33.4057V41.3322Z" fill="#939393"/>
<path d="M22.8535 29.4142H24.0949V32.6092H24.9414V29.4142H26.1828V28.8057H22.8535V29.4142Z" fill="#072C49"/>
<path d="M27.5936 28.8057H26.7472V32.6092H27.5936V28.8057Z" fill="#072C49"/>
<path d="M30.7536 31.7979C30.5843 31.9501 30.415 32.0008 30.1893 32.0008C29.9071 32.0008 29.625 31.8993 29.4557 31.6965C29.2864 31.4936 29.1736 31.1386 29.1736 30.6822C29.1736 30.2258 29.2864 29.9215 29.4557 29.7186C29.625 29.5158 29.9071 29.4143 30.2457 29.4143C30.4714 29.4143 30.6407 29.4651 30.81 29.5665C30.9793 29.6679 31.0921 29.8201 31.1486 30.0229L31.995 29.8201C31.8821 29.5158 31.7693 29.2622 31.5436 29.1101C31.205 28.8565 30.81 28.7043 30.3021 28.7043C29.6814 28.7043 29.23 28.8565 28.8914 29.2115C28.5529 29.5665 28.3271 30.0736 28.3271 30.6822C28.3271 31.2908 28.4964 31.7472 28.8914 32.1022C29.23 32.4572 29.7379 32.6093 30.3021 32.6093C30.7536 32.6093 31.1486 32.5079 31.4307 32.3051C31.7129 32.1022 31.9386 31.7979 32.0514 31.3922L31.205 31.1386C31.0357 31.4936 30.9229 31.6965 30.7536 31.7979Z" fill="#072C49"/>
<path d="M36.4528 28.8057H35.2678L33.575 30.4792V28.8057H32.6721V32.6092H33.575V31.4428L34.2521 30.8342L35.4371 32.6092H36.5093L34.8164 30.2764L36.4528 28.8057Z" fill="#072C49"/>
<path d="M37.8071 30.9357H39.9514V30.2764H37.8071V29.4142H40.1207V28.8057H36.9607V32.6092H40.1771V31.95H37.8071V30.9357Z" fill="#072C49"/>
<path d="M40.6285 28.8057V29.4142H41.87V32.6092H42.7164V29.4142H44.0143V28.8057H40.6285Z" fill="#072C49"/>
<path d="M48.7543 26.0165V45.0343H60.6607C61.4507 45.0343 62.0714 44.4765 62.0714 43.7665V27.2843C62.0714 26.5743 61.4507 26.0165 60.6607 26.0165H48.7543Z" fill="#E45647"/>
<path d="M60.1528 28.9579H51.9707V30.2257H60.1528V28.9579Z" fill="#072C49"/>
<path d="M60.1528 31.6458H51.9707V32.305H60.1528V31.6458Z" fill="#072C49"/>
<path d="M60.1528 33.6743H51.9707V34.9422H60.1528V33.6743Z" fill="#072C49"/>
<path d="M60.1528 36.0579H51.9707V37.3257H60.1528V36.0579Z" fill="#072C49"/>
<path d="M60.1528 38.7457H51.9707V39.405H60.1528V38.7457Z" fill="#072C49"/>
<path d="M60.1528 40.7743H51.9707V42.0421H60.1528V40.7743Z" fill="#072C49"/>
<path d="M60.1528 28.9579H51.9707V30.2257H60.1528V28.9579Z" fill="#072C49"/>
<path d="M60.1528 31.6458H51.9707V32.305H60.1528V31.6458Z" fill="#072C49"/>
<path d="M60.1528 33.6743H51.9707V34.9422H60.1528V33.6743Z" fill="#072C49"/>
<path d="M60.1528 36.0579H51.9707V37.3257H60.1528V36.0579Z" fill="#072C49"/>
<path d="M60.1528 38.7457H51.9707V39.405H60.1528V38.7457Z" fill="#072C49"/>
<path d="M60.1528 40.7743H51.9707V42.0421H60.1528V40.7743Z" fill="#072C49"/>
<path d="M48.7542 37.8329C48.0771 37.8329 47.5128 38.34 47.5128 38.9486C47.5128 39.5572 48.0771 40.0643 48.7542 40.0643C49.4314 40.0643 49.9957 39.5572 49.9957 38.9486C49.9957 38.34 49.4314 37.8329 48.7542 37.8329Z" fill="#E45647"/>
<path d="M48.7543 37.8329V40.0643C49.4314 40.0643 49.9957 39.5572 49.9957 38.9486C49.9957 38.34 49.4314 37.8329 48.7543 37.8329Z" fill="#F3F3F3"/>
<path d="M48.7542 34.3843C48.0771 34.3843 47.5128 34.8914 47.5128 35.5C47.5128 36.1086 48.0771 36.6157 48.7542 36.6157C49.4314 36.6157 49.9957 36.1086 49.9957 35.5C49.9957 34.8914 49.4314 34.3843 48.7542 34.3843Z" fill="#E45647"/>
<path d="M48.7543 34.3843V36.6157C49.4314 36.6157 49.9957 36.1086 49.9957 35.5C49.9957 34.8914 49.4314 34.3843 48.7543 34.3843Z" fill="#F3F3F3"/>
<path d="M48.7542 30.9357C48.0771 30.9357 47.5128 31.4428 47.5128 32.0514C47.5128 32.66 48.0771 33.1671 48.7542 33.1671C49.4314 33.1671 49.9957 32.66 49.9957 32.0514C49.9957 31.4428 49.4314 30.9357 48.7542 30.9357Z" fill="#E45647"/>
<path d="M48.7543 30.9357V33.1671C49.4314 33.1671 49.9957 32.66 49.9957 32.0514C49.9957 31.4428 49.4314 30.9357 48.7543 30.9357Z" fill="#F3F3F3"/>
<path d="M48.7542 27.4872C48.0771 27.4872 47.5128 27.9943 47.5128 28.6029C47.5128 29.2115 48.0771 29.7186 48.7542 29.7186C49.4314 29.7186 49.9957 29.2115 49.9957 28.6029C49.9957 27.9943 49.4314 27.4872 48.7542 27.4872Z" fill="#E45647"/>
<path d="M48.7543 27.4872V29.7186C49.4314 29.7186 49.9957 29.2115 49.9957 28.6029C49.9957 27.9943 49.4314 27.4872 48.7543 27.4872ZM48.7543 41.2815V43.5129C49.4314 43.5129 49.9957 43.0058 49.9957 42.3972C49.9957 41.7886 49.4314 41.2815 48.7543 41.2815Z" fill="#F3F3F3"/>
<path d="M48.7542 37.8329C48.0771 37.8329 47.5128 38.34 47.5128 38.9486C47.5128 39.5572 48.0771 40.0643 48.7542 40.0643C49.4314 40.0643 49.9957 39.5572 49.9957 38.9486C49.9957 38.34 49.4314 37.8329 48.7542 37.8329Z" fill="#E45647"/>
<path d="M48.7543 37.8329V40.0643C49.4314 40.0643 49.9957 39.5572 49.9957 38.9486C49.9957 38.34 49.4314 37.8329 48.7543 37.8329Z" fill="#F3F3F3"/>
<path d="M48.7542 34.3843C48.0771 34.3843 47.5128 34.8914 47.5128 35.5C47.5128 36.1086 48.0771 36.6157 48.7542 36.6157C49.4314 36.6157 49.9957 36.1086 49.9957 35.5C49.9957 34.8914 49.4314 34.3843 48.7542 34.3843Z" fill="#E45647"/>
<path d="M48.7543 34.3843V36.6157C49.4314 36.6157 49.9957 36.1086 49.9957 35.5C49.9957 34.8914 49.4314 34.3843 48.7543 34.3843Z" fill="#F3F3F3"/>
<path d="M48.7542 30.9357C48.0771 30.9357 47.5128 31.4428 47.5128 32.0514C47.5128 32.66 48.0771 33.1671 48.7542 33.1671C49.4314 33.1671 49.9957 32.66 49.9957 32.0514C49.9957 31.4428 49.4314 30.9357 48.7542 30.9357Z" fill="#E45647"/>
<path d="M48.7543 30.9357V33.1671C49.4314 33.1671 49.9957 32.66 49.9957 32.0514C49.9957 31.4428 49.4314 30.9357 48.7543 30.9357Z" fill="#F3F3F3"/>
<path d="M48.7542 27.4872C48.0771 27.4872 47.5128 27.9943 47.5128 28.6029C47.5128 29.2115 48.0771 29.7186 48.7542 29.7186C49.4314 29.7186 49.9957 29.2115 49.9957 28.6029C49.9957 27.9943 49.4314 27.4872 48.7542 27.4872Z" fill="#E45647"/>
<path d="M48.7543 27.4872V29.7186C49.4314 29.7186 49.9957 29.2115 49.9957 28.6029C49.9957 27.9943 49.4314 27.4872 48.7543 27.4872Z" fill="#F3F3F3"/>
</svg>
